<?xml version="1.0" standalone="no"?>
<!DOCTYPE svg PUBLIC "-//W3C//DTD SVG 20010904//EN"
 "http://www.w3.org/TR/2001/REC-SVG-20010904/DTD/svg10.dtd">
<svg version="1.0" xmlns="http://www.w3.org/2000/svg"
 width="300.000000pt" height="197.000000pt" viewBox="0 0 300.000000 197.000000"
 preserveAspectRatio="xMidYMid meet">
<metadata>
Created by potrace 1.10, written by Peter Selinger 2001-2011
</metadata>
<g transform="translate(0.000000,197.000000) scale(0.100000,-0.100000)"
fill="#1e43dd" stroke="none">
<path d="M1075 1380 c3 -5 10 -10 16 -10 5 0 9 5 9 10 0 6 -7 10 -16 10 -8 0
-12 -4 -9 -10z"/>
<path d="M1118 1363 c7 -3 16 -2 19 1 4 3 -2 6 -13 5 -11 0 -14 -3 -6 -6z"/>
<path d="M1105 1340 c31 -38 55 -62 56 -53 0 4 4 -1 9 -12 6 -14 9 -15 9 -5 1
9 -9 24 -21 34 -13 10 -34 28 -48 40 l-25 21 20 -25z"/>
<path d="M1179 1324 c18 -8 36 -13 39 -10 6 6 -43 26 -61 25 -7 0 3 -7 22 -15z"/>
<path d="M1260 1274 c30 -14 58 -31 61 -36 4 -6 12 -7 18 -4 6 4 11 3 11 -2 0
-5 18 -12 40 -16 22 -3 40 -11 40 -18 0 -6 3 -9 6 -5 3 3 31 -3 61 -14 31 -10
59 -17 61 -14 3 3 11 0 19 -6 9 -8 13 -8 13 -1 0 16 -21 26 -59 28 -19 0 -37
6 -39 13 -2 6 -7 9 -12 6 -4 -3 -29 4 -54 16 -25 11 -50 17 -55 14 -5 -3 -12
-1 -16 5 -9 14 -95 53 -125 57 -15 2 -3 -7 30 -23z"/>
<path d="M1196 1261 c-3 -5 6 -12 21 -16 17 -4 22 -9 15 -14 -7 -4 -5 -11 9
-20 12 -7 18 -8 14 -2 -9 16 -5 14 63 -20 34 -17 59 -35 56 -40 -3 -6 -15 -4
-30 6 -13 8 -24 13 -24 11 0 -8 87 -65 116 -76 24 -9 25 -9 14 5 -16 20 4 20
24 0 15 -15 50 -10 41 6 -3 4 -12 6 -20 2 -8 -3 -15 -1 -15 5 0 9 -55 40 -175
100 -27 13 -62 33 -77 43 -15 11 -29 15 -32 10z m228 -126 c30 -22 9 -38 -24
-18 -21 12 -26 19 -17 25 16 10 19 10 41 -7z"/>
<path d="M2546 1252 c-5 -9 41 -8 51 1 3 4 -5 7 -20 7 -14 0 -28 -4 -31 -8z"/>
<path d="M2500 1240 c-9 -6 -10 -10 -3 -10 6 0 15 5 18 10 8 12 4 12 -15 0z"/>
<path d="M2450 1230 c-13 -8 -12 -10 3 -10 9 0 17 5 17 10 0 12 -1 12 -20 0z"/>
<path d="M2660 1200 c0 -6 7 -10 15 -10 8 0 15 2 15 4 0 2 -7 6 -15 10 -8 3
-15 1 -15 -4z"/>
<path d="M1279 1188 c12 -16 11 -18 -10 -19 -19 -1 -20 -2 -5 -6 27 -7 40 11
19 28 -16 13 -17 12 -4 -3z"/>
<path d="M2626 1174 c-23 -23 -20 -30 4 -9 11 10 20 20 20 22 0 7 -9 2 -24
-13z"/>
<path d="M1210 1169 c0 -5 5 -7 10 -4 6 3 10 8 10 11 0 2 -4 4 -10 4 -5 0 -10
-5 -10 -11z"/>
<path d="M2958 1173 c6 -2 18 -2 25 0 6 3 1 5 -13 5 -14 0 -19 -2 -12 -5z"/>
<path d="M2580 1160 c-9 -6 -10 -10 -3 -10 6 0 15 5 18 10 8 12 4 12 -15 0z"/>
<path d="M1600 1150 c0 -5 7 -10 16 -10 8 0 12 5 9 10 -3 6 -10 10 -16 10 -5
0 -9 -4 -9 -10z"/>
<path d="M1460 1140 c0 -5 6 -10 13 -11 6 0 20 -2 30 -4 9 -2 15 1 11 6 -3 5
-9 7 -14 4 -5 -3 -11 -1 -15 5 -8 13 -25 13 -25 0z"/>
<path d="M1650 1142 c8 -5 45 -17 82 -26 37 -10 66 -22 63 -26 -3 -5 9 -12 27
-16 l33 -7 -25 -10 c-20 -8 -96 -15 -179 -17 -26 0 -2 -12 41 -20 23 -5 50 -4
59 1 29 15 55 -16 58 -69 1 -7 6 -10 11 -7 6 4 8 10 5 15 -2 4 7 10 20 13 24
4 44 -7 28 -16 -5 -2 -3 -3 2 -2 6 2 21 -5 33 -15 20 -17 21 -19 5 -23 -10 -3
0 -5 22 -5 34 -1 36 1 18 8 -27 11 -29 23 -7 44 8 9 11 16 6 16 -5 0 -16 -10
-24 -22 -14 -20 -14 -20 -10 15 3 23 0 37 -7 37 -7 0 -9 -9 -5 -25 7 -27 -7
-33 -25 -11 -9 11 -9 15 1 19 9 4 7 6 -4 6 -9 1 -18 -5 -21 -11 -3 -10 -9 -10
-23 -2 -35 21 -26 32 23 27 45 -4 47 -3 29 11 -15 12 -16 16 -5 17 8 0 6 4 -6
9 -20 9 -20 9 0 8 11 0 31 -3 45 -7 14 -4 37 -4 53 0 15 4 27 4 27 -2 0 -5 -7
-9 -15 -9 -17 0 -10 -25 14 -54 14 -16 14 -18 1 -14 -8 2 -21 17 -28 31 -7 15
-21 27 -30 26 -10 0 -12 -3 -5 -5 7 -3 9 -12 6 -21 -4 -10 -2 -14 4 -10 6 4
18 -2 28 -13 18 -19 17 -20 -3 -20 -12 0 -22 -5 -22 -11 0 -6 9 -8 23 -4 35
11 42 11 40 -2 -2 -7 4 -10 13 -6 15 5 15 7 1 15 -9 5 -14 15 -11 23 4 8 1 15
-6 15 -6 0 -8 5 -4 12 4 7 3 8 -4 4 -7 -4 -12 -3 -12 3 0 17 18 21 24 5 3 -8
11 -12 16 -9 7 4 9 -2 4 -19 -8 -32 11 -35 20 -3 4 15 0 27 -14 39 -11 9 -20
21 -20 26 0 14 -16 18 -90 21 -49 2 -81 10 -129 34 -35 17 -71 32 -80 33 -9 1
-32 5 -51 9 -23 4 -30 3 -20 -3z m210 -110 c0 -5 -13 -7 -30 -4 -16 2 -30 6
-30 8 0 2 14 4 30 4 17 0 30 -4 30 -8z"/>
<path d="M1191 1108 c-11 -17 -15 -18 -22 -7 -10 16 -12 8 -3 -15 5 -13 10
-12 26 10 11 14 18 27 16 29 -2 2 -10 -5 -17 -17z"/>
<path d="M1530 1120 c0 -5 10 -10 23 -10 18 0 19 2 7 10 -19 13 -30 13 -30 0z"/>
<path d="M590 1100 c6 -11 15 -20 20 -20 6 0 2 9 -7 20 -10 11 -19 20 -21 20
-1 0 2 -9 8 -20z"/>
<path d="M644 1103 c2 -10 12 -18 24 -19 14 -1 19 3 14 14 -4 11 -7 12 -10 4
-2 -7 -8 -12 -13 -12 -6 0 -8 4 -4 9 3 5 1 12 -4 15 -5 4 -8 -2 -7 -11z"/>
<path d="M775 1110 c-3 -5 -1 -10 4 -10 6 0 11 5 11 10 0 6 -2 10 -4 10 -3 0
-8 -4 -11 -10z"/>
<path d="M1280 1111 c0 -6 4 -13 10 -16 6 -3 7 1 4 9 -7 18 -14 21 -14 7z"/>
<path d="M703 1104 c3 -4 2 -15 -3 -25 -7 -12 -7 -20 0 -24 6 -4 10 -3 9 2 -4
21 2 33 17 33 8 0 12 5 9 10 -3 6 -13 10 -22 10 -9 0 -13 -3 -10 -6z"/>
<path d="M1610 1105 c0 -6 5 -16 12 -23 9 -9 5 -11 -18 -10 -16 1 -37 -2 -46
-6 -13 -6 -15 -3 -11 13 3 12 1 21 -5 21 -5 0 -9 -8 -8 -17 1 -14 -6 -17 -31
-15 -18 1 -33 -2 -33 -8 0 -11 235 -9 246 3 11 11 26 8 19 -3 -3 -5 -1 -10 4
-10 6 0 11 6 11 13 0 9 3 8 9 -2 6 -10 13 -11 27 -3 16 9 13 11 -21 17 -22 3
-48 8 -58 10 -10 2 -14 -1 -10 -8 4 -7 0 -8 -11 -4 -10 4 -24 7 -32 7 -9 0
-12 5 -8 12 5 7 3 8 -6 3 -7 -4 -16 -2 -21 6 -5 8 -9 9 -9 4z m57 -41 c-3 -3
-12 -4 -19 -1 -8 3 -5 6 6 6 11 1 17 -2 13 -5z"/>
<path d="M1565 1090 c-3 -6 1 -7 9 -4 18 7 21 14 7 14 -6 0 -13 -4 -16 -10z"/>
<path d="M977 1071 c-3 -12 -1 -21 3 -21 14 0 19 15 11 29 -6 9 -10 7 -14 -8z"/>
<path d="M1208 1083 c7 -3 16 -2 19 1 4 3 -2 6 -13 5 -11 0 -14 -3 -6 -6z"/>
<path d="M730 1070 c0 -5 5 -10 11 -10 5 0 7 5 4 10 -3 6 -8 10 -11 10 -2 0
-4 -4 -4 -10z"/>
<path d="M934 1071 c4 -5 0 -12 -6 -14 -8 -3 -6 -6 5 -6 9 -1 17 6 17 14 0 8
-5 15 -11 15 -5 0 -8 -4 -5 -9z"/>
<path d="M1010 1071 c0 -6 4 -13 10 -16 6 -3 7 1 4 9 -7 18 -14 21 -14 7z"/>
<path d="M650 1061 c0 -6 4 -12 8 -15 5 -3 9 1 9 9 0 8 -4 15 -9 15 -4 0 -8
-4 -8 -9z"/>
<path d="M855 1061 c-3 -5 -2 -12 3 -15 5 -3 9 1 9 9 0 17 -3 19 -12 6z"/>
<path d="M1156 1056 c3 -9 1 -22 -5 -29 -8 -10 -7 -14 4 -14 8 0 13 3 10 5 -3
3 0 11 5 17 7 9 6 16 -5 25 -13 11 -14 10 -9 -4z"/>
<path d="M1133 1045 c0 -8 4 -12 9 -9 5 3 6 10 3 15 -9 13 -12 11 -12 -6z"/>
<path d="M1275 1051 c-18 -7 -17 -8 6 -13 17 -3 26 0 26 9 0 15 -3 15 -32 4z"/>
<path d="M1343 1053 c15 -2 37 -2 50 0 12 2 0 4 -28 4 -27 0 -38 -2 -22 -4z"/>
<path d="M2030 1051 c0 -4 11 -16 24 -27 14 -10 23 -21 21 -24 -4 -7 54 -4 61
3 3 3 17 -1 31 -8 14 -7 32 -11 41 -8 10 4 13 2 8 -5 -4 -7 -1 -15 8 -18 9 -3
16 -17 16 -30 0 -16 6 -24 18 -24 14 0 15 2 2 10 -11 7 -8 10 16 10 19 0 34
-6 38 -15 3 -8 13 -15 23 -14 11 0 13 3 5 6 -6 2 -10 9 -6 14 3 5 0 9 -6 9 -7
0 -10 6 -7 14 6 14 -30 26 -80 26 -14 0 -21 4 -18 10 3 6 20 8 36 5 20 -4 28
-2 24 5 -3 5 -18 10 -33 10 -15 0 -59 9 -97 21 -39 11 -75 21 -82 23 -7 1 -16
5 -19 9 -10 10 -24 9 -24 -2z m60 -26 c11 -13 10 -14 -4 -9 -9 3 -16 10 -16
15 0 13 6 11 20 -6z m217 -81 c-3 -3 -12 -4 -19 -1 -8 3 -5 6 6 6 11 1 17 -2
13 -5z"/>
<path d="M720 1042 c0 -7 -5 -10 -12 -6 -7 4 -8 3 -4 -5 4 -6 11 -9 16 -6 5 3
11 1 15 -4 3 -6 13 -7 23 -4 15 6 15 5 3 -10 -12 -15 -12 -17 3 -11 21 8 15
29 -8 29 -9 0 -21 7 -26 15 -7 11 -10 11 -10 2z"/>
<path d="M980 1027 c0 -19 -35 -49 -45 -40 -4 5 -6 2 -3 -6 2 -8 11 -15 20
-17 20 -3 62 26 66 46 2 8 -8 2 -23 -14 -14 -15 -29 -26 -32 -23 -3 4 2 13 11
22 15 15 22 45 11 45 -3 0 -5 -6 -5 -13z"/>
<path d="M1195 1030 c4 -6 11 -8 16 -5 5 4 9 1 9 -4 0 -6 7 -11 15 -11 8 0 15
5 15 11 0 5 -4 8 -9 4 -5 -3 -12 -1 -16 5 -3 5 -13 10 -21 10 -8 0 -12 -5 -9
-10z"/>
<path d="M1375 1029 c97 -14 96 -18 -4 -13 -51 2 -97 7 -102 10 -5 3 -9 -2 -9
-10 0 -10 -9 -16 -23 -16 -13 0 -29 -6 -36 -12 -11 -11 -13 -10 -8 4 3 10 2
20 -3 23 -6 4 -10 0 -10 -8 0 -10 -19 -19 -52 -27 -29 -7 -58 -17 -64 -22 -7
-5 -38 -13 -70 -18 -33 -5 -60 -14 -62 -20 -2 -5 -13 -10 -24 -10 -20 0 -20
-1 -4 -19 16 -17 16 -19 -1 -26 -10 -5 -22 -7 -28 -6 -5 2 -7 -1 -3 -5 5 -4
-8 -18 -28 -32 -19 -13 -33 -26 -30 -30 4 -3 12 0 18 6 16 16 25 15 25 -3 0
-8 -6 -15 -12 -15 -7 0 -18 -7 -25 -15 -7 -8 -17 -12 -23 -8 -5 3 -7 1 -4 -4
4 -6 -1 -17 -10 -24 -12 -10 -14 -10 -9 -1 4 6 2 12 -3 12 -10 0 -15 -14 -12
-33 3 -16 -26 -35 -39 -27 -18 11 -23 47 -8 56 7 4 8 3 4 -4 -4 -7 -3 -19 2
-28 14 -25 25 1 12 26 -12 23 4 55 22 44 5 -3 4 -12 -3 -20 -6 -8 -9 -17 -5
-21 3 -3 6 -1 6 5 0 7 7 12 16 12 8 0 12 5 9 10 -4 6 -3 10 2 9 19 -3 33 2 33
12 0 5 -4 7 -10 4 -6 -4 -7 1 -3 12 6 17 5 17 -14 1 -11 -10 -24 -18 -29 -18
-5 1 2 9 15 20 12 11 27 18 31 15 5 -3 12 0 16 6 4 8 3 9 -4 5 -7 -4 -12 -3
-12 3 0 15 18 23 25 11 4 -6 14 -2 27 10 12 11 25 17 30 14 10 -7 10 7 -1 24
-6 10 -12 7 -25 -12 -9 -14 -22 -26 -28 -26 -7 0 -3 7 8 15 10 8 15 15 11 15
-10 0 -85 -58 -109 -85 -10 -11 -26 -33 -35 -50 -8 -16 -22 -35 -29 -43 -8 -7
-19 -22 -24 -32 -7 -12 -17 -17 -28 -14 -10 4 -13 2 -7 -3 14 -12 17 -33 4
-33 -5 0 -7 -5 -4 -10 4 -6 11 -7 17 -4 15 10 0 -36 -23 -68 -21 -30 -24 -48
-8 -48 5 0 7 5 4 10 -3 6 -1 10 4 10 6 0 11 -5 11 -11 0 -6 7 -3 16 5 8 9 14
24 12 34 -3 21 36 74 48 64 5 -4 2 1 -5 11 -12 15 -12 17 3 11 11 -4 16 -1 16
11 0 10 5 14 13 9 6 -4 9 -4 6 0 -6 7 87 106 100 106 4 0 24 18 46 40 21 21
41 37 45 35 4 -2 22 7 41 21 91 69 184 94 242 67 12 -6 31 -14 42 -18 19 -6
19 -7 2 -17 -10 -5 -27 -8 -38 -5 -12 3 -19 0 -19 -10 0 -8 -4 -12 -10 -8 -5
3 -7 12 -3 20 4 11 -2 15 -18 14 -22 0 -22 -1 -5 -8 14 -5 16 -10 7 -15 -6 -4
-19 -2 -27 5 -11 9 -18 9 -26 1 -9 -9 -8 -12 6 -12 11 0 24 -8 31 -17 12 -16
14 -16 38 0 14 9 32 14 40 11 8 -3 22 3 32 12 24 24 123 29 121 5 -1 -9 8 -17
22 -19 12 -2 22 -8 22 -13 0 -5 5 -9 10 -9 5 0 9 3 9 8 -4 27 1 32 21 20 17
-11 22 -10 30 2 8 12 3 16 -23 18 -17 2 -33 -1 -35 -6 -3 -10 -41 -4 -43 7 0
3 -2 16 -5 29 -2 14 0 21 6 17 5 -3 10 -1 10 5 0 6 4 9 9 6 7 -5 8 12 2 49 -1
6 -6 2 -12 -8 -7 -12 -17 -16 -30 -12 -10 4 -24 3 -30 0 -18 -12 -123 -14
-142 -3 -10 5 -21 7 -24 5 -3 -3 8 -12 24 -19 25 -13 60 -16 88 -8 21 5 36 0
29 -12 -4 -7 -3 -8 4 -4 7 4 12 2 12 -5 0 -7 -11 -10 -30 -7 -16 2 -31 1 -32
-4 -2 -4 -24 3 -49 15 -41 21 -50 22 -101 12 -34 -7 -88 -31 -142 -63 -48 -29
-92 -52 -97 -52 -6 0 -7 -5 -3 -12 5 -7 3 -8 -6 -3 -10 6 -6 14 15 31 16 13
32 21 36 19 3 -3 15 5 25 18 13 15 14 18 3 9 -14 -10 -18 -10 -23 3 -3 9 -2
14 3 10 5 -3 11 1 14 7 3 10 7 10 20 0 13 -11 19 -11 36 0 12 7 21 16 21 21 0
4 5 5 10 2 6 -3 10 -1 10 6 0 7 3 9 7 6 3 -4 12 -2 20 4 7 6 13 9 13 6 0 -4
21 3 46 13 28 12 56 18 72 14 37 -8 50 -8 106 -1 78 10 68 20 -14 14 -55 -4
-66 -3 -40 3 19 5 75 9 125 9 53 -1 91 3 93 9 1 5 17 8 34 5 27 -4 30 -2 20 9
-8 10 -38 14 -109 15 -94 1 -95 1 -38 -8z m-1 -103 c-10 -31 -14 -33 -29 -13
-18 25 -9 46 16 40 15 -4 18 -11 13 -27z m36 30 c0 -3 -4 -8 -10 -11 -5 -3
-10 -1 -10 4 0 6 5 11 10 11 6 0 10 -2 10 -4z m-420 -46 c0 -5 -4 -10 -9 -10
-6 0 -13 5 -16 10 -3 6 1 10 9 10 9 0 16 -4 16 -10z m-283 -232 c7 -9 0 -23
-24 -46 -26 -27 -34 -31 -39 -18 -8 22 4 36 24 29 14 -6 15 -4 5 8 -10 12 -10
18 -1 27 15 15 23 15 35 0z m-76 -161 c-8 -8 -11 -7 -11 4 0 9 3 19 7 23 4 4
9 2 11 -4 3 -7 -1 -17 -7 -23z"/>
<path d="M680 670 c-9 -6 -10 -10 -3 -10 6 0 15 5 18 10 8 12 4 12 -15 0z"/>
<path d="M1526 1029 c3 -5 16 -9 29 -9 13 0 27 -5 30 -11 10 -16 -4 -24 -17
-11 -7 7 -17 12 -22 12 -6 0 -4 -5 4 -11 11 -7 7 -9 -20 -8 -64 2 -77 0 -60
-11 13 -9 13 -10 0 -11 -8 -1 -20 -1 -27 0 -12 2 -11 -12 2 -42 4 -10 5 -21 1
-24 -3 -4 -6 0 -6 8 0 11 -2 11 -10 -1 -6 -10 -10 -11 -10 -2 0 6 -4 12 -9 12
-6 0 -9 -9 -8 -20 1 -11 6 -19 12 -17 5 2 33 10 62 17 29 8 50 17 47 22 -3 5
-10 6 -15 3 -21 -14 -48 -13 -53 2 -10 25 1 30 69 32 61 2 85 -9 50 -23 -8 -3
-15 -2 -15 3 0 4 -6 8 -14 8 -8 0 -12 -6 -9 -13 3 -7 14 -10 26 -7 24 5 80 5
112 -2 11 -2 26 -4 34 -4 8 -1 11 -4 8 -7 -3 -4 -41 -6 -84 -5 -43 1 -91 -3
-108 -9 -28 -9 -26 -9 17 -7 26 1 44 -2 40 -7 -3 -6 3 -6 14 -2 33 13 83 16
89 6 3 -5 11 -10 16 -10 6 0 7 5 4 10 -3 6 1 10 10 10 10 0 13 -5 9 -12 -4 -7
-3 -8 4 -4 7 4 17 4 24 0 18 -12 111 -11 130 0 16 10 16 12 1 28 -12 13 -13
18 -3 18 7 0 11 3 7 6 -3 3 -11 3 -17 -1 -8 -5 -8 -10 0 -20 16 -19 3 -38 -18
-26 -9 5 -26 5 -37 1 -12 -5 -27 -5 -34 -1 -10 6 -8 10 4 15 9 3 21 4 26 1 5
-4 6 1 3 9 -3 9 -10 16 -16 16 -5 0 -7 4 -3 9 3 5 1 12 -5 16 -5 3 -10 13 -10
21 0 8 4 12 10 9 6 -3 7 1 4 10 -5 12 -10 13 -17 6 -14 -14 -70 -15 -62 -1 3
6 2 10 -3 10 -6 0 -12 -7 -16 -15 -3 -8 -10 -15 -16 -15 -6 0 -9 4 -5 9 3 5 0
13 -6 17 -7 4 -9 3 -5 -4 3 -6 2 -13 -4 -17 -5 -3 -10 1 -10 9 0 11 -9 16 -29
16 -17 0 -33 5 -37 11 -5 9 1 10 20 5 15 -4 26 -2 26 4 0 6 -24 9 -55 9 -30
-1 -52 -6 -49 -10z m107 -36 c-7 -2 -19 -2 -25 0 -7 3 -2 5 12 5 14 0 19 -2
13 -5z m3 -28 c5 -11 22 -15 63 -15 38 0 51 3 41 10 -8 5 -12 12 -8 15 3 3 12
-1 21 -9 8 -8 17 -13 20 -10 3 3 8 1 11 -4 7 -12 -56 -23 -94 -17 -14 2 -41 4
-60 5 -19 1 -27 4 -17 7 34 9 16 18 -40 21 -78 4 -81 12 -4 12 46 0 63 -4 67
-15z m144 -55 c-19 -12 -40 -13 -40 -1 0 9 40 20 50 13 2 -2 -2 -7 -10 -12z"/>
<path d="M1895 1030 c4 -6 11 -8 16 -5 14 9 11 15 -7 15 -8 0 -12 -5 -9 -10z"/>
<path d="M863 1013 c4 -6 4 -13 0 -16 -5 -2 -3 -2 4 -1 21 5 24 -13 3 -19 -11
-3 -26 3 -36 14 -9 10 -24 19 -33 18 -10 0 -7 -4 7 -10 21 -8 22 -11 8 -24 -8
-8 -19 -15 -25 -15 -5 0 -12 -4 -16 -9 -3 -6 4 -8 15 -6 11 2 20 -1 20 -6 0
-6 4 -8 10 -4 5 3 7 12 3 20 -3 10 1 15 12 15 9 0 14 -4 10 -9 -3 -5 -1 -12 5
-16 5 -3 10 0 10 8 0 8 8 17 18 19 10 3 19 13 19 22 0 9 -3 14 -5 11 -3 -3
-12 1 -20 8 -11 8 -14 8 -9 0z"/>
<path d="M1115 1000 c3 -5 11 -10 16 -10 6 0 7 5 4 10 -3 6 -11 10 -16 10 -6
0 -7 -4 -4 -10z"/>
<path d="M703 987 c-3 -6 -1 -7 4 -4 6 4 14 0 17 -9 3 -8 2 -12 -3 -9 -5 3
-12 1 -15 -4 -4 -5 -2 -12 3 -15 5 -4 12 -2 16 4 4 6 11 7 17 4 6 -4 5 -10 -3
-15 -10 -6 -10 -9 -2 -9 16 0 26 17 13 25 -5 3 -10 14 -10 24 0 19 -27 24 -37
8z"/>
<path d="M1075 992 c-11 -2 -24 -8 -29 -13 -6 -5 -18 -9 -27 -9 -10 0 -20 -4
-23 -8 -3 -5 8 -6 25 -4 16 2 29 8 29 13 0 4 15 9 33 11 17 2 28 6 22 9 -5 3
-19 4 -30 1z"/>
<path d="M575 980 c-4 -6 -11 -7 -17 -4 -7 4 -8 2 -4 -4 7 -12 36 -5 36 9 0
12 -7 11 -15 -1z"/>
<path d="M2310 981 c9 -5 40 -12 70 -16 30 -3 56 -8 59 -11 2 -2 12 2 20 10
19 18 30 12 53 -29 17 -31 30 -36 37 -13 2 7 0 10 -4 6 -8 -8 -35 15 -35 30 0
15 98 17 149 2 30 -8 52 3 36 18 -3 4 -95 8 -203 10 -130 2 -192 -1 -182 -7z"/>
<path d="M2725 980 c-3 -4 0 -10 7 -12 7 -3 -9 -12 -35 -21 -26 -9 -45 -12
-42 -6 4 5 1 9 -4 9 -21 0 -11 -31 14 -42 13 -6 22 -15 19 -19 -3 -5 0 -9 6
-9 6 0 8 -5 4 -11 -5 -8 -1 -8 13 0 11 6 23 7 27 4 3 -3 6 -1 6 6 0 8 -7 11
-15 7 -8 -3 -16 -1 -16 4 -1 6 -3 15 -4 20 -1 6 -3 13 -4 18 -1 4 -6 0 -12 -8
-8 -11 -10 -11 -7 -1 2 7 20 15 42 17 25 2 36 -1 34 -8 -3 -7 -10 -14 -18 -16
-9 -3 -10 0 -4 9 7 12 5 12 -9 0 -23 -18 -22 -20 13 -16 16 2 32 0 35 -6 4 -5
-1 -9 -10 -9 -9 0 -14 -4 -11 -9 3 -5 15 -7 25 -4 24 6 36 31 14 29 -9 0 -18
4 -20 10 -2 7 6 11 22 10 25 -1 31 -11 17 -33 -12 -19 -125 -103 -139 -103 -7
0 -13 -5 -13 -11 0 -5 -4 -8 -8 -5 -5 3 -23 -4 -42 -15 l-33 -20 6 20 c3 14 0
21 -9 21 -8 0 -11 -6 -8 -15 4 -8 1 -15 -6 -15 -6 0 -9 -4 -6 -8 3 -5 0 -9 -7
-10 -29 -2 -48 -9 -59 -20 -7 -7 -17 -12 -22 -12 -6 0 -4 5 4 10 8 5 10 10 4
10 -5 0 -20 -9 -31 -19 -12 -11 -23 -17 -27 -14 -3 3 -12 1 -20 -6 -8 -6 -18
-11 -22 -10 -25 4 -45 -2 -38 -13 5 -7 2 -9 -8 -5 -9 3 -38 -1 -65 -9 -26 -8
-59 -13 -73 -10 -18 3 -30 -2 -44 -21 l-19 -25 34 7 c61 12 184 48 196 58 7 5
20 7 28 3 9 -3 18 0 21 8 3 8 13 12 24 9 10 -3 21 0 24 6 4 6 20 11 37 11 16
0 29 4 29 9 0 5 22 14 49 21 27 6 58 18 68 25 10 8 24 15 31 15 14 0 68 38
131 92 42 36 43 37 31 73 -10 31 -14 34 -28 23 -9 -7 -13 -8 -10 -3 7 12 -59
48 -67 35z"/>
<path d="M755 970 c3 -5 8 -10 11 -10 2 0 4 5 4 10 0 6 -5 10 -11 10 -5 0 -7
-4 -4 -10z"/>
<path d="M910 972 c0 -7 -8 -12 -18 -12 -10 0 -19 -7 -19 -15 0 -8 6 -15 13
-15 15 0 39 39 30 48 -3 3 -6 0 -6 -6z"/>
<path d="M2059 971 c-1 -6 -2 -19 -3 -28 0 -10 -7 -21 -16 -25 -11 -5 -9 -7 7
-7 17 -1 21 -6 17 -18 -5 -17 -5 -17 6 0 12 18 40 24 40 7 0 -5 -3 -9 -7 -7
-5 1 -9 -1 -10 -5 -6 -17 -2 -20 12 -8 18 15 100 26 92 13 -4 -5 0 -10 8 -10
8 0 12 5 8 10 -3 5 5 7 18 3 13 -3 18 -3 12 0 -7 3 -13 14 -13 23 0 31 -43 61
-86 60 -34 -1 -36 -2 -14 -9 14 -4 20 -8 13 -9 -6 -1 -11 -10 -10 -20 1 -15 7
-18 29 -16 15 2 30 1 32 -3 3 -5 -3 -9 -12 -10 -52 -7 -67 -6 -67 5 0 6 -3 15
-7 19 -5 4 -8 16 -8 26 0 10 -5 18 -11 18 -5 0 -7 -6 -3 -12 5 -9 2 -9 -9 1
-11 9 -17 10 -18 2z m131 -13 c0 -4 -4 -8 -9 -8 -6 0 -12 4 -15 8 -3 5 1 9 9
9 8 0 15 -4 15 -9z m-102 -39 c-7 -4 -16 -3 -20 4 -11 18 2 29 18 16 12 -10
12 -14 2 -20z m72 21 c0 -5 -2 -10 -4 -10 -3 0 -8 5 -11 10 -3 6 -1 10 4 10 6
0 11 -4 11 -10z m55 0 c3 -5 1 -10 -4 -10 -6 0 -11 5 -11 10 0 6 2 10 4 10 3
0 8 -4 11 -10z"/>
<path d="M1830 940 c-9 -16 -8 -18 5 -14 8 4 15 12 15 20 0 20 -7 17 -20 -6z"/>
<path d="M2340 946 c0 -21 12 -27 28 -13 13 10 14 9 8 -1 -6 -10 1 -12 26 -10
18 2 33 -1 33 -7 0 -5 -5 -9 -12 -7 -7 2 -13 -2 -13 -8 0 -5 9 -10 19 -10 11
0 23 -4 26 -10 3 -5 16 -9 28 -9 16 1 17 3 5 6 -10 2 -15 10 -11 19 4 11 9 12
19 3 11 -9 14 -8 14 5 0 9 -4 16 -10 16 -5 0 -10 6 -10 13 0 8 -14 12 -41 11
-23 -1 -57 2 -75 6 -24 6 -34 4 -34 -4z m130 -46 c0 -5 -5 -10 -11 -10 -5 0
-7 5 -4 10 3 6 8 10 11 10 2 0 4 -4 4 -10z"/>
<path d="M550 940 c-9 -6 -10 -10 -3 -10 6 0 15 5 18 10 8 12 4 12 -15 0z"/>
<path d="M583 935 c0 -8 4 -12 9 -9 5 3 6 10 3 15 -9 13 -12 11 -12 -6z"/>
<path d="M675 939 c-4 -6 -5 -12 -2 -15 2 -3 7 2 10 11 7 17 1 20 -8 4z"/>
<path d="M1490 940 c-13 -8 -13 -10 2 -10 9 0 20 5 23 10 8 13 -5 13 -25 0z"/>
<path d="M2590 940 c0 -5 7 -10 15 -10 24 0 17 -20 -7 -21 -13 -1 -27 0 -33 1
-5 1 -6 -2 -2 -7 5 -4 14 -8 20 -8 5 0 12 -6 15 -12 2 -7 -1 -13 -8 -13 -6 0
-9 4 -6 8 2 4 -6 9 -19 10 -13 1 -29 3 -36 4 -6 2 -14 -3 -17 -11 -3 -10 0
-12 11 -8 11 4 14 0 10 -16 -4 -20 -3 -20 7 -4 13 21 26 21 64 2 31 -17 61
-20 34 -4 -10 5 -18 19 -18 30 0 16 5 18 25 13 26 -6 26 -6 -5 25 -32 31 -50
39 -50 21z"/>
<path d="M826 933 c-4 -4 -25 -8 -47 -9 -49 -2 -54 -6 -29 -22 16 -10 18 -9
14 3 -4 10 1 13 19 9 29 -5 75 10 60 19 -6 4 -13 3 -17 0z"/>
<path d="M2565 930 c3 -5 8 -10 11 -10 2 0 4 5 4 10 0 6 -5 10 -11 10 -5 0 -7
-4 -4 -10z"/>
<path d="M620 909 c0 -9 31 -21 38 -14 3 3 0 5 -7 5 -7 0 -10 4 -7 8 3 5 -1 9
-9 9 -8 0 -15 -4 -15 -8z"/>
<path d="M1125 908 c-8 -5 -19 -7 -24 -3 -5 3 -12 1 -16 -5 -3 -5 -12 -10 -20
-10 -8 0 -31 -12 -52 -26 -47 -32 -55 -40 -23 -25 111 54 154 68 183 60 15 -4
27 -4 27 1 0 12 -57 18 -75 8z"/>
<path d="M1985 910 c3 -5 12 -7 20 -3 21 7 19 13 -6 13 -11 0 -18 -4 -14 -10z"/>
<path d="M671 893 c-1 -16 5 -23 17 -23 10 0 13 3 6 8 -6 4 -14 14 -17 22 -4
10 -6 8 -6 -7z"/>
<path d="M2365 900 c4 -6 11 -8 16 -5 14 9 11 15 -7 15 -8 0 -12 -5 -9 -10z"/>
<path d="M539 887 c13 -16 5 -28 -14 -21 -7 3 -16 1 -20 -5 -3 -6 0 -9 8 -5 8
3 18 -5 25 -18 6 -13 11 -16 11 -8 -3 35 0 39 25 27 13 -7 22 -15 19 -20 -2
-4 -1 -7 4 -6 27 5 32 -3 27 -40 -5 -35 -3 -39 21 -45 24 -6 27 -26 4 -26 -6
0 -8 4 -5 8 3 5 -9 8 -27 8 -31 -1 -32 -3 -32 -43 -1 -23 3 -39 7 -37 4 3 8
12 8 20 0 17 16 19 23 2 4 -10 6 -10 6 0 1 7 15 25 31 39 17 14 28 28 25 31
-3 3 2 14 12 24 9 10 13 21 10 25 -4 3 -7 1 -7 -5 0 -7 -5 -12 -11 -12 -5 0
-7 5 -4 10 3 6 1 10 -5 10 -7 0 -10 -7 -6 -15 3 -9 0 -15 -8 -15 -20 0 -27 12
-15 26 14 17 -9 54 -29 46 -12 -4 -12 -1 -2 17 6 13 9 25 6 28 -3 3 -10 -5
-15 -18 -5 -13 -10 -19 -10 -12 -1 7 -7 10 -15 7 -9 -3 -20 3 -28 15 -7 12
-17 21 -22 21 -4 0 -3 -6 3 -13z m106 -117 c3 -5 1 -10 -4 -10 -6 0 -11 5 -11
10 0 6 2 10 4 10 3 0 8 -4 11 -10z m-26 -49 c9 -6 10 -11 2 -15 -6 -4 -11 -1
-12 6 0 7 -4 4 -9 -7 -8 -19 -9 -19 -9 3 -1 24 6 27 28 13z"/>
<path d="M713 885 c0 -8 4 -15 9 -15 4 0 8 7 8 15 0 8 -4 15 -8 15 -5 0 -9 -7
-9 -15z"/>
<path d="M1937 884 c3 -8 12 -14 20 -14 8 0 11 4 8 10 -4 6 1 7 12 3 10 -3 15
-3 11 2 -4 4 -18 9 -32 10 -18 2 -23 -1 -19 -11z"/>
<path d="M1218 883 c7 -3 16 -2 19 1 4 3 -2 6 -13 5 -11 0 -14 -3 -6 -6z"/>
<path d="M1913 883 c9 -15 -21 -26 -60 -24 -23 2 -33 -2 -33 -12 0 -7 -9 -13
-21 -13 -12 1 -23 -5 -25 -12 -1 -7 0 -8 3 -2 7 16 33 12 33 -5 0 -24 -40 -18
-50 8 -5 12 -9 16 -9 10 -1 -8 -14 -13 -31 -13 -16 0 -30 -4 -30 -10 0 -5 -7
-7 -15 -4 -12 5 -13 9 -4 21 7 7 19 11 27 8 12 -4 12 -2 4 8 -7 8 -9 17 -5 20
3 4 2 7 -3 8 -67 7 -94 7 -99 -1 -4 -6 12 -10 40 -10 25 0 44 -4 41 -9 -3 -4
-26 -6 -52 -3 -32 3 -49 0 -55 -9 -7 -11 -9 -11 -9 -1 0 7 -4 11 -8 8 -5 -3
-29 -6 -55 -7 -31 -2 -53 -9 -64 -21 -17 -19 -8 -24 17 -9 8 6 18 7 24 4 5 -4
1 -9 -9 -13 -14 -5 -9 -9 23 -17 27 -7 40 -7 36 -1 -4 6 1 8 12 4 19 -5 70 4
108 20 19 7 19 7 0 -19 -14 -21 -26 -27 -46 -24 -16 2 -28 1 -28 -2 0 -3 -25
-4 -55 -3 -30 2 -53 8 -49 13 3 5 0 9 -5 9 -6 0 -11 -4 -11 -9 0 -5 -8 -11
-19 -14 -12 -3 -23 4 -35 24 -10 16 -24 29 -32 29 -17 0 -19 27 -2 32 23 8 -3
26 -38 26 -27 0 -34 -3 -30 -15 5 -11 2 -13 -11 -9 -22 9 -101 -14 -108 -31
-2 -8 2 -16 10 -19 16 -6 11 -24 -6 -24 -6 0 -8 4 -4 9 3 5 1 12 -5 16 -6 4
-8 11 -4 17 4 6 -3 8 -17 6 -15 -2 -23 2 -22 9 2 7 -4 10 -13 6 -15 -5 -15 -7
0 -15 17 -9 13 -28 -5 -28 -6 0 -7 5 -4 11 4 6 -2 5 -14 -3 -15 -9 -17 -14 -7
-20 17 -9 56 1 56 16 0 6 7 2 15 -8 8 -10 12 -23 8 -29 -4 -6 4 -7 21 -3 19 5
26 3 26 -9 0 -8 -7 -16 -15 -16 -8 -1 -18 -2 -22 -3 -5 -1 -28 -6 -52 -10 -55
-10 -120 -37 -103 -43 6 -3 9 -9 6 -14 -3 -6 -11 -3 -18 7 -11 15 -14 15 -28
1 -9 -9 -18 -14 -20 -11 -3 2 -11 -4 -19 -13 -13 -17 -13 -17 5 -3 17 13 19
13 14 0 -7 -21 -60 -39 -65 -23 -4 10 -8 9 -19 -1 -8 -8 -14 -20 -14 -26 0 -6
-8 -10 -17 -8 -25 4 -43 -10 -43 -33 0 -19 -19 -22 -32 -4 -13 17 -9 28 6 16
10 -9 15 -8 19 2 3 9 -2 13 -16 12 -17 -1 -22 -8 -22 -29 -1 -20 3 -26 15 -23
14 4 15 1 6 -18 -6 -13 -14 -21 -17 -19 -4 2 -9 -4 -11 -14 -6 -23 27 -68 35
-48 3 7 29 17 59 21 29 4 45 10 36 12 -10 3 -18 13 -18 23 0 19 -40 36 -40 17
0 -7 -5 -4 -11 6 -11 18 -5 37 12 37 6 0 7 -5 3 -12 -4 -7 -3 -8 4 -4 7 4 12
1 12 -6 0 -9 3 -9 10 2 8 13 11 12 24 -5 10 -12 15 -15 16 -7 0 18 35 11 35
-7 0 -9 11 -15 28 -15 15 -1 27 3 27 9 0 5 5 3 11 -5 9 -13 10 -12 5 3 -3 9
-9 24 -12 32 -3 8 -1 16 5 16 21 3 26 4 39 13 17 10 27 0 27 -27 0 -18 6 -22
28 -20 15 1 27 -3 27 -8 0 -6 7 -6 19 1 14 7 22 7 26 0 4 -6 11 -8 16 -5 5 4
9 -1 9 -9 0 -19 -11 -20 -29 -3 -11 10 -13 9 -8 -4 3 -9 0 -16 -9 -16 -8 0
-14 4 -14 8 0 4 -18 7 -40 7 -22 0 -37 -4 -34 -9 3 -5 0 -9 -5 -9 -6 0 -11 6
-11 13 0 9 -2 9 -8 0 -4 -7 -13 -8 -20 -4 -16 10 -72 2 -72 -11 0 -5 15 -7 32
-4 37 6 78 -15 78 -40 0 -13 8 -11 43 9 23 14 46 25 50 25 4 0 21 5 37 12 24
10 28 15 20 30 -8 14 -6 20 8 23 16 4 16 5 -1 6 -10 0 -15 5 -12 11 3 6 -1 7
-9 4 -11 -4 -16 0 -16 12 0 14 -2 16 -12 5 -11 -10 -10 -14 5 -22 9 -6 17 -15
17 -21 0 -7 -4 -7 -13 1 -8 6 -17 7 -21 3 -4 -4 -7 -2 -6 3 1 6 1 12 0 15 -7
19 -7 39 1 34 5 -3 9 0 9 6 0 6 5 8 10 5 6 -3 10 -1 10 5 0 6 5 8 12 4 6 -4 8
-3 4 4 -4 7 -17 8 -39 1 -17 -5 -33 -9 -34 -9 -3 0 5 -33 12 -52 5 -11 1 -16
-12 -15 -10 1 -23 6 -29 12 -15 13 -13 37 3 31 7 -3 13 -1 13 4 0 6 -4 10 -10
10 -5 0 -10 7 -10 16 0 14 3 14 15 4 13 -11 14 -10 10 3 -8 19 -34 26 -60 16
-19 -7 -19 -8 3 -8 15 -1 22 -7 22 -22 0 -12 -4 -17 -11 -14 -6 4 -8 9 -5 13
7 6 -41 32 -61 32 -8 0 -12 -4 -9 -8 3 -5 0 -9 -7 -10 -44 -4 -65 -26 -24 -27
15 0 22 -6 22 -20 0 -11 4 -23 9 -26 4 -4 3 -10 -3 -13 -6 -4 -14 0 -17 8 -3
9 -11 13 -18 10 -6 -3 -3 1 7 9 12 10 14 17 8 22 -6 3 -11 1 -11 -5 0 -6 -4
-9 -9 -5 -5 3 -12 1 -16 -4 -8 -15 -71 -6 -89 11 -13 14 -12 16 10 16 13 0 24
-6 24 -12 0 -6 4 -5 9 3 5 8 7 20 4 28 -3 7 1 13 8 13 7 0 9 -3 6 -6 -9 -9 11
-44 25 -44 6 0 4 8 -5 18 -20 22 -13 32 20 32 12 0 28 9 35 19 10 16 15 18 27
8 12 -10 13 -9 6 2 -6 11 -4 13 8 8 11 -4 22 2 33 18 13 20 23 24 50 21 19 -2
34 1 34 6 0 6 7 8 15 4 8 -3 15 0 15 6 0 6 6 5 17 -3 9 -8 14 -9 10 -3 -4 7 2
9 20 6 20 -4 24 -2 18 9 -5 8 2 5 15 -6 13 -11 20 -15 17 -8 -5 8 0 11 12 10
11 0 17 -5 15 -9 -3 -4 10 -8 28 -9 18 0 41 -2 50 -4 14 -3 15 0 5 16 -6 10
-15 19 -20 19 -4 0 -6 -4 -3 -8 2 -4 -7 -8 -22 -9 -15 0 -19 1 -9 4 9 2 15 8
13 12 -3 4 5 8 16 8 12 1 24 7 28 13 4 6 35 8 86 4 132 -10 164 -10 164 -1 0
5 17 6 38 2 57 -12 96 -13 110 -2 8 6 12 5 12 -3 0 -7 14 -11 38 -9 20 1 45
-2 55 -6 27 -11 31 1 8 24 -16 16 -26 19 -45 11 -14 -5 -28 -6 -30 -1 -3 4
-33 8 -67 9 -62 0 -90 15 -68 37 6 6 12 6 18 -3 9 -14 63 -13 73 3 5 6 8 3 8
-7 0 -10 7 -18 16 -18 8 0 12 5 9 10 -8 13 1 13 25 0 11 -6 32 -7 46 -4 l27 7
-24 13 c-13 7 -27 10 -31 8 -10 -6 -10 8 -2 30 8 21 54 21 54 1 0 -13 12 -15
61 -13 33 1 62 5 64 8 2 4 18 5 36 2 17 -2 26 -8 20 -11 -7 -4 -3 -14 11 -25
20 -18 21 -18 15 4 -4 17 -2 20 11 15 26 -12 68 -19 60 -11 -3 4 -12 8 -20 10
-21 3 -39 17 -33 26 6 10 -23 35 -32 26 -4 -4 -1 -11 7 -16 8 -5 12 -11 10
-14 -9 -8 -71 9 -70 19 1 5 -4 11 -12 13 -10 3 -10 1 1 -6 11 -8 10 -11 -5
-16 -41 -12 -114 -17 -114 -6 0 5 6 10 14 10 18 0 29 27 14 36 -6 4 -8 3 -5
-3z m-565 -42 c-7 -11 -15 -18 -20 -15 -4 3 -20 -2 -35 -11 -16 -9 -20 -14
-11 -11 9 3 19 0 21 -7 3 -9 7 -9 18 0 20 17 59 5 59 -18 0 -28 -9 -32 -120
-44 -30 -3 -40 -2 -30 5 12 8 12 10 -3 16 -9 3 -17 13 -17 20 0 8 -7 17 -15
20 -24 10 -7 24 29 24 17 0 38 6 45 13 11 10 13 10 7 0 -9 -17 -7 -16 40 7 21
10 40 19 42 20 1 0 -3 -9 -10 -19z m312 -8 c0 -10 -76 -33 -125 -37 -53 -5
-57 -4 -37 7 12 7 19 16 16 20 -4 4 -3 7 3 7 5 0 13 -3 17 -7 11 -12 56 -11
56 1 0 6 4 5 9 -2 7 -11 9 -11 13 0 5 11 48 21 48 11z m-160 -13 c0 -5 -4 -10
-9 -10 -6 0 -13 5 -16 10 -3 6 1 10 9 10 9 0 16 -4 16 -10z m-483 -253 c0 -7
-9 -14 -19 -14 -15 -2 -17 1 -9 11 6 7 8 16 4 20 -4 4 0 4 8 1 9 -3 16 -12 16
-18z m-191 -82 c34 0 25 -24 -10 -31 -20 -3 -36 -11 -36 -17 0 -6 -3 -8 -6 -5
-3 4 2 18 11 32 11 17 13 26 6 26 -7 0 -9 5 -5 11 4 8 9 7 15 -2 4 -8 16 -14
25 -14z m260 -37 c4 -7 4 -10 -1 -6 -4 4 -14 3 -21 -3 -8 -7 -14 -6 -20 2 -4
8 -3 9 4 5 7 -4 12 -2 12 3 0 15 17 14 26 -1z"/>
<path d="M1227 794 c-13 -13 7 -34 33 -34 33 0 48 15 24 24 -9 4 -13 2 -8 -5
3 -6 -5 -4 -18 5 -14 9 -27 13 -31 10z"/>
<path d="M1345 782 c-11 -2 -24 -9 -30 -14 -7 -7 -1 -8 20 -3 44 10 53 26 10
17z"/>
<path d="M2300 880 c-9 -6 -10 -10 -3 -10 6 0 15 5 18 10 8 12 4 12 -15 0z"/>
<path d="M2338 883 c7 -3 16 -2 19 1 4 3 -2 6 -13 5 -11 0 -14 -3 -6 -6z"/>
<path d="M645 870 c-3 -5 -1 -10 4 -10 6 0 11 5 11 10 0 6 -2 10 -4 10 -3 0
-8 -4 -11 -10z"/>
<path d="M750 870 c-9 -6 -10 -10 -3 -10 6 0 15 5 18 10 8 12 4 12 -15 0z"/>
<path d="M1510 870 c0 -5 5 -10 10 -10 6 0 10 5 10 10 0 6 -4 10 -10 10 -5 0
-10 -4 -10 -10z"/>
<path d="M1545 870 c-3 -5 3 -10 14 -10 12 0 21 5 21 10 0 6 -6 10 -14 10 -8
0 -18 -4 -21 -10z"/>
<path d="M2120 856 c0 -26 25 -42 36 -24 4 6 -1 15 -12 21 -17 10 -17 11 1 18
19 7 18 8 -2 8 -18 1 -23 -5 -23 -23z"/>
<path d="M2633 867 c-3 -7 -3 -9 2 -5 14 13 45 -11 39 -30 -5 -13 -4 -14 4 -3
6 8 8 20 5 27 -6 17 -42 25 -50 11z"/>
<path d="M286 854 c-5 -14 -4 -15 9 -4 17 14 19 20 6 20 -5 0 -12 -7 -15 -16z"/>
<path d="M1072 858 c-7 -7 -12 -9 -12 -5 0 3 -12 -5 -27 -19 -18 -16 -29 -21
-33 -13 -6 8 -9 8 -15 -1 -4 -6 -13 -9 -21 -6 -15 6 -124 -113 -124 -135 0 -8
5 -6 13 6 8 10 19 15 25 11 7 -4 22 3 34 15 l23 21 -22 -7 c-15 -4 -23 -2 -23
5 0 6 6 8 13 4 6 -4 9 -3 4 1 -9 10 32 57 44 49 4 -2 5 -12 2 -22 -4 -9 16 3
43 26 28 23 53 42 56 42 4 0 -1 -14 -9 -31 -9 -18 -18 -27 -22 -20 -4 6 -33
-16 -71 -55 -35 -36 -56 -62 -46 -58 16 6 17 4 7 -14 -14 -26 -14 -32 0 -32 5
0 8 4 4 9 -3 5 0 13 6 16 5 4 8 14 5 22 -4 9 0 14 12 12 30 -3 42 1 42 12 0 8
-4 8 -13 1 -10 -8 -13 -6 -13 7 0 13 6 16 22 13 17 -3 26 3 38 26 9 17 30 42
48 57 18 15 28 24 21 21 -18 -10 -22 17 -5 37 17 19 12 23 -6 5z m-83 -64
c-14 -17 -25 -18 -32 -1 -3 7 5 13 20 13 19 2 22 -1 12 -12z m12 -43 c-18 -14
-21 -20 -10 -24 8 -3 4 -6 -10 -6 l-24 -1 23 25 c13 14 28 25 34 25 6 0 0 -9
-13 -19z m-111 -41 c0 -5 -2 -10 -4 -10 -3 0 -8 5 -11 10 -3 6 -1 10 4 10 6 0
11 -4 11 -10z"/>
<path d="M1710 862 c0 -4 16 -8 35 -9 19 -1 35 1 35 5 0 4 -16 8 -35 9 -19 2
-35 0 -35 -5z"/>
<path d="M1975 860 c3 -5 8 -10 11 -10 2 0 4 5 4 10 0 6 -5 10 -11 10 -5 0 -7
-4 -4 -10z"/>
<path d="M690 850 c13 -9 7 -14 -12 -11 -4 0 -4 -7 -1 -16 6 -14 7 -14 19 2
14 19 10 35 -9 35 -7 0 -6 -4 3 -10z"/>
<path d="M741 843 c-20 -10 -29 -19 -21 -21 8 -3 16 0 18 7 2 6 7 9 12 6 4 -3
13 2 20 10 16 19 13 19 -29 -2z"/>
<path d="M2265 850 c-16 -7 -17 -9 -3 -9 9 -1 20 4 23 9 7 11 7 11 -20 0z"/>
<path d="M1085 840 c-3 -6 1 -7 9 -4 18 7 21 14 7 14 -6 0 -13 -4 -16 -10z"/>
<path d="M2345 841 c-3 -5 -2 -12 3 -15 5 -3 9 1 9 9 0 17 -3 19 -12 6z"/>
<path d="M2560 846 c0 -2 6 -16 14 -30 l14 -27 6 27 c4 14 5 29 1 32 -3 3 -5
0 -5 -6 0 -7 -5 -12 -11 -12 -5 0 -7 5 -4 10 3 6 1 10 -4 10 -6 0 -11 -2 -11
-4z"/>
<path d="M380 830 c0 -5 5 -10 11 -10 5 0 7 5 4 10 -3 6 -8 10 -11 10 -2 0 -4
-4 -4 -10z"/>
<path d="M1850 831 c0 -6 4 -13 10 -16 6 -3 7 1 4 9 -7 18 -14 21 -14 7z"/>
<path d="M2298 833 c6 -2 18 -2 25 0 6 3 1 5 -13 5 -14 0 -19 -2 -12 -5z"/>
<path d="M2440 830 c0 -5 -7 -10 -15 -10 -8 0 -15 -5 -15 -11 0 -5 5 -7 11 -4
5 4 19 -1 30 -11 10 -9 22 -15 25 -11 3 3 -4 10 -15 16 -12 7 -18 17 -15 26 4
8 3 15 0 15 -3 0 -6 -4 -6 -10z"/>
<path d="M2477 833 c-2 -5 2 -19 9 -33 8 -14 14 -19 14 -12 0 7 14 13 33 13
30 2 30 2 5 6 -16 2 -28 11 -28 19 0 14 -26 20 -33 7z"/>
<path d="M560 819 c0 -5 5 -7 10 -4 6 3 10 8 10 11 0 2 -4 4 -10 4 -5 0 -10
-5 -10 -11z"/>
<path d="M1370 820 c20 -13 50 -13 50 0 0 6 -15 10 -32 10 -25 0 -29 -3 -18
-10z"/>
<path d="M2528 823 c7 -3 16 -2 19 1 4 3 -2 6 -13 5 -11 0 -14 -3 -6 -6z"/>
<path d="M2010 812 c0 -4 -20 -7 -44 -7 -25 1 -43 -3 -40 -7 3 -5 -5 -12 -18
-17 -21 -9 -21 -10 -3 -11 17 0 17 -2 5 -10 -10 -6 -11 -10 -2 -10 6 0 12 -7
12 -15 0 -8 -5 -15 -11 -15 -5 0 -7 -5 -4 -10 11 -18 27 1 22 26 -4 22 -1 24
31 24 31 0 33 -2 21 -17 -12 -17 -12 -17 5 -1 23 20 14 37 -18 31 -13 -3 -27
1 -31 7 -5 9 -1 10 14 5 12 -4 21 -2 21 4 0 15 30 14 30 -1 0 -7 5 -5 11 5 10
17 29 15 29 -4 0 -6 -4 -7 -10 -4 -5 3 -10 1 -10 -5 0 -7 7 -9 16 -6 9 3 21 6
27 6 7 0 1 9 -13 20 -27 21 -40 25 -40 12z"/>
<path d="M591 803 c1 -4 1 -17 0 -28 -1 -17 -3 -18 -12 -5 -9 13 -10 12 -5 -2
6 -21 -12 -24 -20 -4 -4 11 -12 12 -33 5 -20 -7 -26 -16 -26 -34 2 -31 15 -46
15 -17 0 12 6 22 13 22 8 0 7 4 -3 10 -12 8 -11 10 7 10 28 0 38 -16 16 -24
-15 -6 -15 -9 -3 -16 16 -10 33 -3 25 10 -3 5 4 11 15 15 11 3 20 9 21 13 0 4
2 15 4 24 2 10 -1 21 -6 24 -5 3 -9 2 -8 -3z"/>
<path d="M2833 803 c9 -2 25 -2 35 0 9 3 1 5 -18 5 -19 0 -27 -2 -17 -5z"/>
<path d="M2908 803 c6 -2 18 -2 25 0 6 3 1 5 -13 5 -14 0 -19 -2 -12 -5z"/>
<path d="M325 785 c-3 -8 -7 -22 -10 -30 -4 -14 7 -20 29 -16 4 1 14 -3 21 -9
9 -8 15 -8 20 0 3 6 11 7 17 4 7 -4 8 -2 4 5 -4 6 -15 9 -24 7 -10 -3 -24 -1
-32 5 -13 9 -12 10 3 5 21 -7 22 7 1 28 -19 20 -23 20 -29 1z"/>
<path d="M440 795 c0 -2 14 -8 30 -14 22 -7 29 -7 24 0 -4 8 1 9 17 4 13 -4
21 -4 17 0 -8 8 -88 17 -88 10z"/>
<path d="M1400 792 c0 -4 10 -9 22 -9 18 -2 20 0 8 7 -18 12 -30 13 -30 2z"/>
<path d="M2097 781 c-3 -12 0 -24 5 -28 6 -3 8 -1 4 5 -3 5 0 12 6 15 10 3 10
8 2 16 -9 9 -13 7 -17 -8z"/>
<path d="M9 773 c-13 -16 -12 -17 4 -4 9 7 17 15 17 17 0 8 -8 3 -21 -13z"/>
<path d="M125 781 c3 -3 22 -4 43 -2 32 3 35 1 23 -13 -7 -9 -10 -16 -5 -16 5
0 3 -4 -4 -9 -12 -7 -12 -12 0 -30 7 -12 19 -19 25 -16 7 2 13 0 13 -5 0 -6 8
-10 18 -10 16 1 16 1 0 14 -20 14 -25 31 -7 20 8 -4 9 0 4 15 -5 16 -3 20 9
15 9 -3 14 -10 11 -14 -3 -5 -1 -11 5 -15 6 -4 8 -11 5 -16 -4 -5 -1 -9 6 -9
8 0 8 -4 -1 -15 -8 -10 -23 -13 -41 -10 -22 4 -29 1 -29 -11 0 -18 -22 -14
-28 6 -3 7 0 10 7 6 13 -9 14 4 1 24 -6 10 -10 11 -10 3 0 -7 -3 -12 -7 -11
-5 0 -16 -2 -26 -7 -13 -5 -15 -10 -7 -15 7 -5 2 -9 -15 -12 -17 -4 -37 2 -59
17 -22 15 -38 20 -47 14 -11 -7 -10 -9 4 -9 10 0 34 -11 54 -25 31 -21 34 -25
19 -31 -10 -4 -32 -7 -49 -8 -26 -1 -31 -5 -32 -28 -1 -18 3 -28 12 -28 9 0
11 5 6 13 -11 18 -12 37 -2 37 5 0 9 -4 9 -10 0 -6 9 -6 25 0 14 5 33 7 42 4
14 -5 15 -4 4 4 -9 7 -10 12 -2 16 6 4 9 12 6 17 -4 5 4 9 17 8 13 0 17 -3 11
-6 -17 -6 -16 -20 1 -20 8 0 13 8 11 19 -3 11 2 18 12 18 9 0 13 -6 9 -15 -5
-13 -1 -13 32 0 38 17 88 12 76 -6 -3 -6 5 -4 19 6 17 10 27 13 32 6 8 -13 25
-14 25 -2 0 5 -9 11 -20 14 -20 5 -28 27 -10 27 6 0 10 -5 10 -11 0 -5 5 -7
10 -4 6 4 16 2 23 -4 10 -7 13 -5 14 9 2 22 -19 30 -65 26 -29 -3 -33 -1 -29
15 3 11 1 17 -4 13 -5 -3 -9 2 -9 11 0 9 9 19 20 22 11 3 20 9 20 13 0 5 -10
6 -22 2 -12 -3 -19 -1 -15 5 4 6 -25 9 -74 10 -44 0 -77 -2 -74 -6z m139 -17
c4 -9 -4 -12 -25 -9 -16 2 -27 0 -24 -6 4 -5 3 -18 0 -30 -5 -15 -10 -17 -20
-9 -21 18 8 66 39 66 14 0 28 -6 30 -12z m101 -84 c3 -6 -1 -7 -9 -4 -18 7
-21 14 -7 14 6 0 13 -4 16 -10z m-205 -10 c0 -5 -5 -10 -11 -10 -5 0 -7 5 -4
10 3 6 8 10 11 10 2 0 4 -4 4 -10z m144 -6 c3 -8 2 -12 -4 -9 -6 3 -10 2 -10
-4 0 -6 -7 -8 -15 -5 -8 4 -12 10 -9 15 3 5 10 7 15 4 5 -4 9 -1 9 4 0 16 7
13 14 -5z"/>
<path d="M382 773 c6 -7 16 -13 23 -13 7 0 15 6 18 13 3 9 -4 13 -24 13 -22 0
-26 -2 -17 -13z"/>
<path d="M2138 783 c10 -4 10 -8 0 -21 -9 -12 -5 -11 12 3 14 11 27 21 29 22
2 2 -9 3 -25 2 -16 0 -23 -3 -16 -6z"/>
<path d="M2398 778 c5 -5 16 -8 23 -6 8 3 3 7 -10 11 -17 4 -21 3 -13 -5z"/>
<path d="M2755 761 c-10 -14 -13 -21 -5 -15 20 15 64 -1 54 -18 -6 -9 -3 -9 9
1 22 17 13 31 -20 31 -32 0 -22 13 13 17 15 2 27 -2 30 -12 3 -8 10 -15 16
-15 5 0 7 4 4 9 -9 14 20 21 33 8 8 -8 11 -8 11 2 0 10 3 11 13 2 13 -10 27
-6 27 10 0 4 -37 7 -82 7 -78 0 -84 -2 -103 -27z"/>
<path d="M2958 783 c7 -3 16 -2 19 1 4 3 -2 6 -13 5 -11 0 -14 -3 -6 -6z"/>
<path d="M50 765 c14 -16 40 -20 40 -6 0 9 -24 21 -42 21 -6 0 -6 -6 2 -15z"/>
<path d="M820 719 c-36 -34 -60 -59 -54 -55 7 3 14 -1 17 -9 4 -9 1 -12 -7 -9
-7 3 -19 -2 -26 -10 -7 -9 -16 -13 -21 -10 -5 3 -8 2 -7 -3 4 -15 -23 -54 -34
-47 -6 4 -8 3 -4 -4 3 -5 2 -12 -3 -14 -5 -1 -3 -9 5 -16 12 -11 14 -9 14 7 0
14 6 19 19 16 10 -2 18 2 18 8 -1 38 4 44 31 40 23 -3 24 -2 7 6 -20 10 -20
10 0 11 11 2 24 2 28 1 5 -1 6 3 3 8 -4 5 -3 11 1 14 5 2 3 2 -4 1 -22 -5 -22
26 0 37 20 11 21 11 8 -4 -12 -15 -11 -17 3 -17 10 0 15 4 12 9 -3 5 10 29 30
55 19 25 34 46 32 46 -2 0 -32 -28 -68 -61z"/>
<path d="M925 760 c-10 -11 -13 -20 -7 -20 6 0 16 9 22 20 6 11 9 20 7 20 -2
0 -12 -9 -22 -20z"/>
<path d="M150 760 c0 -5 -8 -7 -17 -4 -15 5 -16 4 -3 -5 12 -9 11 -11 -10 -12
-14 0 -19 -3 -12 -6 8 -3 25 0 38 8 24 13 32 29 14 29 -5 0 -10 -4 -10 -10z"/>
<path d="M436 761 c-3 -5 1 -12 10 -15 22 -8 25 -4 9 11 -8 7 -16 9 -19 4z"/>
<path d="M1039 754 c-6 -8 -8 -14 -3 -14 4 0 -3 -11 -16 -25 -13 -14 -21 -27
-18 -30 3 -3 13 6 22 20 12 18 23 24 36 20 10 -3 22 0 26 6 5 9 2 10 -12 6
-18 -7 -18 -6 -1 7 22 17 22 21 -2 23 -11 1 -25 -5 -32 -13z"/>
<path d="M1870 756 c0 -8 7 -17 16 -20 23 -9 24 -4 2 17 -14 13 -18 14 -18 3z"/>
<path d="M2055 760 c-16 -7 -17 -9 -3 -9 9 -1 20 4 23 9 7 11 7 11 -20 0z"/>
<path d="M2960 760 c-12 -8 -12 -10 2 -15 10 -4 23 -5 30 -2 7 3 4 6 -7 6 -17
1 -17 3 -5 11 8 5 11 10 5 10 -5 0 -17 -4 -25 -10z"/>
<path d="M23 740 c1 -11 7 -22 14 -25 10 -3 11 0 4 14 -6 10 -7 21 -4 25 3 3
1 6 -5 6 -6 0 -10 -9 -9 -20z"/>
<path d="M1115 746 c20 -14 35 -12 35 5 0 5 -12 9 -27 9 -26 0 -26 -1 -8 -14z"/>
<path d="M2698 743 c6 -2 18 -2 25 0 6 3 1 5 -13 5 -14 0 -19 -2 -12 -5z"/>
<path d="M2876 738 c3 -4 9 -8 15 -8 5 0 9 4 9 8 0 5 -7 9 -15 9 -8 0 -12 -4
-9 -9z"/>
<path d="M70 730 c-9 -6 -10 -10 -3 -10 6 0 15 5 18 10 8 12 4 12 -15 0z"/>
<path d="M435 723 c11 -11 23 -16 26 -11 3 5 9 3 12 -6 5 -11 1 -16 -13 -16
-10 0 -21 4 -25 10 -3 5 -14 2 -25 -8 -20 -17 -28 -38 -10 -27 5 3 18 -3 30
-15 11 -11 20 -16 20 -11 0 6 -9 16 -20 24 -18 12 -18 15 -5 20 8 4 15 3 15
-2 0 -4 15 -6 33 -4 17 2 26 0 20 -3 -20 -9 -15 -32 10 -45 22 -12 22 -12 4 9
-20 22 -10 37 13 21 8 -5 11 -9 6 -9 -5 0 -3 -6 3 -14 9 -10 8 -15 -4 -20 -8
-3 -22 -3 -30 0 -17 7 -19 -4 -5 -26 7 -11 10 -11 10 -2 0 7 5 10 10 7 6 -3
10 0 10 7 0 9 4 8 14 -2 18 -19 24 -46 11 -45 -5 0 -9 5 -9 12 1 6 -5 9 -12 6
-10 -4 -11 -9 -4 -18 5 -6 7 -15 3 -18 -3 -4 0 -7 8 -7 10 0 11 -2 2 -8 -8 -5
-9 -13 -3 -22 8 -13 10 -13 10 1 0 9 9 28 20 42 11 14 20 29 20 34 0 4 -5 1
-10 -7 -7 -11 -10 -12 -10 -2 0 8 10 22 23 33 12 10 17 18 10 19 -6 0 -13 -5
-15 -12 -3 -7 -9 -8 -18 -3 -10 6 -9 11 5 22 17 12 17 13 -11 14 -25 0 -26 2
-9 9 19 8 19 9 1 9 -20 1 -13 16 7 16 5 0 12 6 15 13 2 7 -2 10 -12 6 -9 -3
-16 -1 -16 5 0 6 -4 11 -10 11 -5 0 -7 -6 -4 -14 3 -8 1 -17 -4 -20 -13 -8
-46 30 -37 43 3 7 -2 11 -14 11 -10 0 -28 3 -38 7 -16 5 -16 4 2 -14z"/>
<path d="M2755 730 c-4 -6 -11 -8 -16 -5 -5 4 -9 1 -9 -4 0 -6 7 -11 15 -11 8
0 15 -4 15 -9 0 -5 -6 -9 -12 -8 -7 0 -22 -1 -33 -2 -17 -1 -18 -3 -5 -11 11
-7 7 -10 -20 -11 -19 -1 -38 -1 -42 0 -5 0 -8 -3 -8 -8 0 -5 25 -7 56 -5 40 3
53 1 48 -7 -5 -8 -3 -9 6 -4 10 6 10 11 -3 20 -20 14 -22 27 -4 24 25 -3 33 2
34 21 2 22 -12 35 -22 20z"/>
<path d="M127 718 c-12 -9 -14 -17 -7 -28 8 -13 10 -12 10 3 0 9 5 16 11 15 6
-2 14 3 16 10 3 6 1 12 -4 12 -5 0 -17 -6 -26 -12z"/>
<path d="M319 717 c7 -7 14 -8 21 -1 6 6 2 10 -12 11 -16 2 -18 -1 -9 -10z"/>
<path d="M2666 713 c10 -7 27 -12 38 -12 19 2 19 2 -1 6 -13 2 -23 8 -23 12 0
4 -7 8 -16 8 -14 0 -14 -2 2 -14z"/>
<path d="M2698 723 c7 -3 16 -2 19 1 4 3 -2 6 -13 5 -11 0 -14 -3 -6 -6z"/>
<path d="M2840 719 c0 -4 19 -6 43 -6 24 0 50 -3 57 -8 9 -5 11 -4 6 3 -5 8 3
10 26 5 18 -3 29 -2 25 3 -9 10 -157 13 -157 3z"/>
<path d="M2028 713 c7 -3 16 -2 19 1 4 3 -2 6 -13 5 -11 0 -14 -3 -6 -6z"/>
<path d="M65 700 c-16 -7 -17 -9 -3 -9 9 -1 20 4 23 9 7 11 7 11 -20 0z"/>
<path d="M2031 693 c-18 -8 -31 -16 -28 -19 3 -3 15 0 27 6 16 9 25 9 33 1 14
-14 27 -14 27 0 0 5 -4 8 -9 4 -5 -3 -11 1 -13 8 -2 12 -9 11 -37 0z"/>
<path d="M2565 699 c-4 -6 -13 -8 -21 -5 -8 3 -14 1 -14 -4 0 -5 15 -8 34 -7
26 2 32 5 24 15 -13 15 -15 15 -23 1z"/>
<path d="M2623 695 c-10 -10 -5 -13 25 -13 20 0 30 3 22 6 -8 2 -19 8 -25 12
-5 5 -15 2 -22 -5z"/>
<path d="M2800 700 c-11 -7 -11 -10 -2 -10 7 0 10 -4 7 -10 -4 -6 6 -10 24
-10 16 0 32 4 35 9 3 4 -4 8 -17 7 -13 -1 -21 4 -19 12 2 14 -7 15 -28 2z"/>
<path d="M1780 696 c0 -2 11 -6 25 -8 14 -3 25 -1 25 3 0 5 -11 9 -25 9 -14 0
-25 -2 -25 -4z"/>
<path d="M1844 691 c10 -15 -23 -28 -71 -27 -24 1 -43 -3 -43 -7 0 -5 24 -8
53 -6 28 1 60 -1 70 -6 11 -4 23 -3 29 3 7 7 5 10 -8 8 -30 -5 -42 7 -14 14
l25 6 -24 13 c-13 7 -20 8 -17 2z"/>
<path d="M2890 690 c0 -6 -16 -18 -35 -27 -24 -12 -31 -19 -23 -25 19 -12 36
-9 18 3 -11 7 -5 9 24 6 43 -3 63 -27 24 -28 -22 0 -22 -1 -3 -9 15 -6 9 -9
-25 -8 -37 0 -41 1 -20 8 15 5 -9 7 -63 4 -74 -3 -88 -1 -84 11 5 10 -4 14
-34 13 -21 0 -45 5 -52 11 -8 6 -16 8 -20 5 -3 -3 -15 -1 -26 6 -15 8 -21 8
-21 0 0 -6 -4 -8 -10 -5 -21 13 -49 13 -61 -1 -8 -10 -8 -14 0 -14 6 0 11 5
11 12 0 6 7 3 15 -8 8 -11 15 -14 15 -6 0 6 4 12 10 12 6 0 6 -9 -1 -23 -10
-22 -16 -24 -72 -21 -47 2 -56 0 -38 -7 13 -5 44 -7 70 -5 25 2 55 5 66 6 17
2 17 3 -4 9 -22 6 -23 8 -8 23 21 21 61 12 52 -11 -5 -13 -4 -14 6 -3 14 13
59 17 59 5 0 -16 -16 -32 -30 -31 -49 3 -94 -3 -80 -11 8 -5 40 -8 70 -7 38 1
61 -3 75 -15 11 -9 40 -19 65 -22 25 -3 37 -3 27 0 -9 2 -14 9 -11 15 5 8 -3
9 -24 5 -27 -6 -32 -4 -32 13 0 12 -7 20 -17 20 -10 0 -25 5 -33 10 -10 7 7 8
55 5 101 -8 135 -15 135 -25 0 -6 7 -10 16 -10 8 0 12 5 9 10 -5 8 20 15 46
12 4 -1 5 12 3 29 -2 18 0 28 6 24 6 -3 10 -13 10 -21 0 -20 14 -17 36 7 19
22 19 22 -8 15 -17 -4 -28 -2 -28 4 0 5 -13 8 -30 6 -33 -4 -40 8 -14 22 15 8
15 10 0 15 -9 4 -16 2 -16 -3z m-180 -120 c0 -5 -2 -10 -4 -10 -3 0 -8 5 -11
10 -3 6 -1 10 4 10 6 0 11 -4 11 -10z"/>
<path d="M2976 684 c-9 -24 -7 -27 9 -10 17 17 19 26 6 26 -5 0 -12 -7 -15
-16z"/>
<path d="M1890 685 c0 -30 18 -38 62 -27 l43 11 -42 -5 c-33 -4 -43 -2 -52 13
-6 10 -10 14 -11 8z"/>
<path d="M62 675 c3 -3 16 -8 28 -10 12 -2 20 -1 16 2 -4 4 -16 8 -28 10 -12
2 -19 1 -16 -2z"/>
<path d="M1206 668 c3 -5 10 -6 15 -3 13 9 11 12 -6 12 -8 0 -12 -4 -9 -9z"/>
<path d="M2035 670 c-3 -5 1 -10 11 -10 12 0 15 -6 11 -21 -4 -16 -3 -18 9 -8
18 15 18 0 0 -24 -17 -22 -76 -41 -76 -24 0 8 -3 9 -8 1 -12 -17 -43 -26 -112
-30 -36 -2 -89 -6 -119 -9 -44 -5 -52 -3 -48 9 4 9 2 18 -3 21 -6 4 -15 -6
-20 -21 -6 -15 -13 -24 -16 -22 -3 3 -22 2 -42 -4 -20 -5 -60 -10 -89 -12 -28
-2 -56 -7 -62 -11 -10 -6 -15 1 -12 18 0 4 -4 7 -10 7 -6 0 -8 9 -4 23 4 15 3
18 -3 9 -7 -11 -14 -7 -30 15 -14 18 -20 22 -18 11 1 -10 5 -21 9 -24 4 -4 7
-12 7 -18 0 -6 -5 -5 -12 2 -15 15 -28 15 -28 1 0 -5 5 -7 10 -4 6 3 10 2 10
-3 0 -6 -7 -13 -16 -16 -21 -8 -21 -8 -28 10 -4 10 3 23 16 35 13 10 17 18 11
19 -7 0 -13 -4 -13 -10 0 -5 -5 -10 -12 -10 -6 0 -8 3 -5 6 3 4 2 14 -2 23
-10 17 11 56 22 44 4 -3 7 -1 7 5 0 7 -6 12 -12 12 -19 0 -37 -45 -26 -63 10
-19 -5 -31 -31 -22 -11 3 -22 1 -26 -5 -4 -6 4 -10 19 -10 15 0 30 -8 36 -20
9 -16 8 -18 -5 -14 -8 3 -12 11 -8 18 4 6 -1 5 -10 -3 -21 -17 -15 -24 21 -29
15 -2 32 -8 37 -14 7 -7 6 -9 -1 -5 -7 4 -15 0 -18 -9 -3 -8 -2 -12 3 -9 5 3
49 7 98 10 48 3 111 9 138 15 71 14 124 20 250 30 61 4 145 17 187 28 56 14
80 16 89 8 9 -8 10 -8 5 2 -4 6 -3 12 1 12 5 0 9 9 9 19 0 11 -4 17 -8 15 -4
-3 -8 2 -8 11 0 8 -11 21 -25 27 -14 6 -25 15 -25 20 0 11 -17 10 -25 -2z m60
-78 c-5 -13 -8 -14 -15 -3 -5 9 -3 22 3 33 10 16 12 16 15 3 2 -9 1 -24 -3
-33z m-667 -59 c-1 -10 2 -25 7 -33 7 -13 6 -13 -7 -2 -12 9 -18 10 -23 2 -5
-8 -11 -8 -21 1 -12 10 -10 15 13 30 35 22 35 22 31 2z"/>
<path d="M2100 669 c0 -5 5 -7 10 -4 6 3 10 8 10 11 0 2 -4 4 -10 4 -5 0 -10
-5 -10 -11z"/>
<path d="M2185 670 c3 -5 8 -10 11 -10 2 0 4 5 4 10 0 6 -5 10 -11 10 -5 0 -7
-4 -4 -10z"/>
<path d="M870 658 c0 -6 -3 -8 -6 -5 -9 9 -44 -11 -44 -26 0 -7 4 -6 10 3 5 8
10 10 10 4 0 -6 7 -11 14 -11 8 0 14 5 13 11 -1 6 3 10 10 9 7 -2 10 4 7 12
-7 18 -14 20 -14 3z"/>
<path d="M1125 660 c-3 -6 -16 -8 -28 -4 -18 4 -23 1 -24 -15 -1 -12 2 -21 8
-21 5 0 9 7 9 15 0 13 4 14 22 4 21 -11 21 -12 3 -25 -10 -8 -15 -17 -12 -21
4 -3 16 3 27 14 10 12 16 24 13 27 -4 3 -1 6 6 6 7 0 9 5 5 12 -5 8 -2 9 9 5
10 -3 17 -2 17 3 0 13 -47 13 -55 0z"/>
<path d="M1314 656 c-3 -9 -10 -14 -14 -11 -5 3 -7 -3 -6 -12 2 -10 -4 -23
-13 -30 -14 -10 -13 -12 7 -10 17 1 22 6 19 19 -3 10 -2 18 3 18 10 0 22 31
15 38 -2 3 -7 -3 -11 -12z"/>
<path d="M2138 663 c6 -2 18 -2 25 0 6 3 1 5 -13 5 -14 0 -19 -2 -12 -5z"/>
<path d="M9 651 c7 -5 9 -11 5 -13 -5 -3 -3 -3 4 -2 6 2 12 -1 12 -6 0 -6 5
-10 12 -10 6 0 3 9 -7 20 -10 11 -23 20 -29 20 -6 0 -5 -4 3 -9z"/>
<path d="M1570 640 c-8 -10 -21 -21 -29 -24 -11 -3 -9 -5 4 -4 45 1 50 -1 29
-17 -17 -14 -17 -14 10 -3 23 10 30 10 34 0 2 -6 9 -12 15 -12 7 1 2 9 -10 19
-16 14 -19 21 -10 30 8 8 8 11 0 11 -6 0 -13 -6 -16 -12 -2 -7 -8 -10 -12 -6
-4 4 -2 14 5 23 7 8 8 15 3 15 -5 0 -15 -9 -23 -20z"/>
<path d="M1040 635 c-8 -9 -8 -15 -2 -15 12 0 26 19 19 26 -2 2 -10 -2 -17
-11z"/>
<path d="M1935 640 l-30 -8 27 -1 c15 0 30 4 33 9 3 6 5 9 3 9 -2 -1 -16 -5
-33 -9z"/>
<path d="M2120 640 c0 -6 7 -10 15 -10 8 0 15 2 15 4 0 2 -7 6 -15 10 -8 3
-15 1 -15 -4z"/>
<path d="M2441 641 c-10 -6 -9 -10 5 -15 20 -8 25 -4 16 11 -4 7 -13 9 -21 4z"/>
<path d="M360 626 c0 -11 -7 -13 -30 -6 -22 6 -32 5 -37 -5 -11 -20 -26 -19
-33 1 -6 16 -7 16 -13 1 -6 -15 -1 -19 19 -16 4 0 11 -5 15 -13 7 -10 9 -10 9
0 0 7 5 10 12 6 7 -4 8 -3 4 4 -4 7 -2 12 3 12 6 0 11 -4 11 -9 0 -12 27 -8
42 7 19 19 26 14 23 -13 -1 -16 3 -25 12 -25 9 0 12 7 7 24 -3 13 -1 27 5 30
7 4 8 1 5 -8 -4 -10 -1 -16 9 -16 9 0 14 -7 12 -17 -1 -10 0 -12 2 -5 4 10 8
10 19 1 8 -6 17 -9 20 -6 10 10 -5 39 -16 32 -5 -3 -10 -2 -10 4 0 6 -7 8 -15
5 -11 -5 -13 -2 -9 10 7 18 -7 21 -23 5 -8 -8 -13 -8 -17 0 -10 16 -26 14 -26
-3z"/>
<path d="M1780 636 c0 -2 7 -7 16 -10 8 -3 12 -2 9 4 -6 10 -25 14 -25 6z"/>
<path d="M2755 630 c-25 -11 1 -11 35 0 20 6 21 8 5 8 -11 0 -29 -3 -40 -8z"/>
<path d="M209 626 c-4 -5 -6 -36 -2 -32 3 3 15 0 27 -6 17 -8 19 -8 9 2 -6 7
-9 18 -7 25 4 8 -20 18 -27 11z"/>
<path d="M1235 621 c-3 -5 -1 -12 4 -15 5 -4 8 -14 6 -24 -2 -9 -4 -19 -4 -22
-1 -3 -5 1 -9 8 -7 10 -15 10 -37 2 -15 -6 -25 -13 -22 -16 3 -3 14 -1 25 5
16 8 21 7 27 -6 5 -14 8 -15 14 -4 7 11 10 11 17 0 4 -7 3 -14 -3 -16 -6 -2
-21 -13 -34 -24 -15 -13 -18 -19 -8 -20 66 -6 88 -5 83 3 -4 5 -14 8 -24 5
-10 -2 -24 -1 -31 4 -11 7 -11 9 -1 10 33 4 37 6 35 17 -2 7 3 12 10 13 6 0 2
4 -10 9 -15 6 -21 16 -18 29 2 11 -1 23 -6 26 -5 4 -7 11 -4 16 4 5 4 9 1 9
-3 0 -7 -4 -11 -9z"/>
<path d="M2388 623 c7 -3 16 -2 19 1 4 3 -2 6 -13 5 -11 0 -14 -3 -6 -6z"/>
<path d="M175 610 c-3 -5 -3 -10 1 -10 4 0 -1 -7 -12 -15 -18 -14 -18 -14 3
-9 13 4 21 13 20 25 -1 22 -3 23 -12 9z"/>
<path d="M1635 610 c4 -6 11 -8 16 -5 14 9 11 15 -7 15 -8 0 -12 -5 -9 -10z"/>
<path d="M2298 613 c6 -2 18 -2 25 0 6 3 1 5 -13 5 -14 0 -19 -2 -12 -5z"/>
<path d="M775 601 c-26 -6 -27 -8 -11 -14 13 -5 25 -2 35 8 8 8 13 14 11 14
-3 -1 -18 -4 -35 -8z"/>
<path d="M2966 594 c-5 -12 -2 -15 10 -10 8 3 18 6 20 6 2 0 4 5 4 10 0 16
-27 11 -34 -6z"/>
<path d="M123 585 c0 -11 4 -12 14 -4 7 6 13 13 13 15 0 2 -6 4 -13 4 -8 0
-14 -7 -14 -15z"/>
<path d="M1520 589 c0 -5 5 -7 10 -4 6 3 10 8 10 11 0 2 -4 4 -10 4 -5 0 -10
-5 -10 -11z"/>
<path d="M2280 590 c20 -13 33 -13 25 0 -3 6 -14 10 -23 10 -15 0 -15 -2 -2
-10z"/>
<path d="M2324 589 c-4 -8 58 0 65 7 3 3 -10 3 -28 2 -18 -1 -34 -5 -37 -9z"/>
<path d="M350 580 c-13 -8 -12 -10 3 -10 9 0 17 5 17 10 0 12 -1 12 -20 0z"/>
<path d="M610 581 c0 -7 -4 -10 -8 -7 -5 3 -18 -15 -30 -40 -26 -53 -26 -55
-7 -48 8 4 15 17 15 30 0 13 4 24 10 24 12 0 34 40 26 48 -3 3 -6 0 -6 -7z"/>
<path d="M2225 577 c10 -8 27 -12 37 -9 24 6 21 8 -22 16 -31 6 -32 5 -15 -7z"/>
<path d="M2745 580 c-3 -5 -1 -10 4 -10 6 0 11 5 11 10 0 6 -2 10 -4 10 -3 0
-8 -4 -11 -10z"/>
<path d="M45 571 c-3 -5 -1 -12 5 -16 5 -3 10 1 10 9 0 18 -6 21 -15 7z"/>
<path d="M80 565 c-8 -9 -8 -15 -2 -15 12 0 26 19 19 26 -2 2 -10 -2 -17 -11z"/>
<path d="M224 573 c3 -6 2 -15 -4 -18 -6 -4 -8 -16 -4 -27 5 -17 3 -18 -14 -9
-25 13 -38 31 -23 31 6 0 11 5 11 10 0 7 -7 7 -21 -1 -15 -8 -18 -13 -10 -19
8 -5 4 -12 -13 -23 -18 -12 -26 -13 -30 -4 -3 6 -3 2 0 -10 3 -14 1 -23 -6
-23 -7 0 -6 -5 2 -14 15 -16 30 -11 26 9 -3 13 0 15 25 15 8 0 7 -4 -3 -10
-12 -8 -9 -10 13 -10 17 0 27 5 27 15 0 8 -3 14 -7 14 -5 -1 -16 -1 -26 0 -15
1 -16 3 -5 15 11 11 17 10 35 -11 16 -16 23 -19 23 -9 0 8 3 16 8 18 4 2 15
18 25 37 12 22 13 30 4 23 -10 -9 -17 -8 -27 1 -9 8 -11 9 -6 0z"/>
<path d="M2149 567 c5 -5 21 -7 37 -5 27 3 26 4 -8 9 -22 3 -34 1 -29 -4z"/>
<path d="M2395 570 c7 -12 -21 -20 -68 -21 -52 -1 -86 -12 -68 -23 6 -4 17 -3
24 2 7 6 51 12 99 14 47 1 84 5 82 7 -9 9 -74 28 -69 21z"/>
<path d="M2789 573 c17 -3 20 -7 12 -13 -9 -5 -5 -9 12 -12 14 -3 32 -1 39 4
10 8 9 9 -4 5 -9 -3 -22 1 -28 9 -7 8 -22 13 -34 13 -19 -2 -18 -2 3 -6z"/>
<path d="M2976 567 c-18 -13 -18 -14 -1 -21 10 -3 20 -4 23 -1 3 3 0 5 -8 5
-10 0 -10 3 0 15 15 19 10 19 -14 2z"/>
<path d="M2308 563 c6 -2 18 -2 25 0 6 3 1 5 -13 5 -14 0 -19 -2 -12 -5z"/>
<path d="M2903 563 c-7 -2 -13 -9 -13 -15 0 -6 6 -6 15 2 8 6 19 9 24 6 5 -4
12 -2 16 4 6 10 -20 12 -42 3z"/>
<path d="M101 546 c-9 -10 -7 -13 11 -12 12 0 23 7 26 14 5 16 -23 15 -37 -2z"/>
<path d="M410 548 c0 -5 8 -8 18 -8 10 0 24 -6 32 -12 12 -11 12 -10 2 3 -6 9
-10 18 -8 20 2 2 -7 4 -20 4 -13 0 -24 -3 -24 -7z"/>
<path d="M880 550 c0 -5 5 -10 11 -10 5 0 7 5 4 10 -3 6 -8 10 -11 10 -2 0 -4
-4 -4 -10z"/>
<path d="M2550 544 c-36 -7 -80 -13 -99 -14 -44 0 -37 -6 17 -13 27 -3 40 -2
36 5 -4 7 6 9 30 6 20 -2 36 -1 36 3 0 4 25 7 55 7 31 -1 58 2 61 5 4 3 -2 5
-12 5 -11 -1 -28 1 -39 4 -11 3 -49 -1 -85 -8z"/>
<path d="M2063 536 c0 -24 96 -32 116 -10 3 4 -8 4 -26 1 -18 -4 -35 -2 -38 3
-4 6 -11 8 -16 5 -5 -4 -9 -1 -9 4 0 6 -6 11 -13 11 -8 0 -14 -6 -14 -14z"/>
<path d="M2128 543 c6 -2 18 -2 25 0 6 3 1 5 -13 5 -14 0 -19 -2 -12 -5z"/>
<path d="M14 531 c4 -5 0 -12 -6 -14 -10 -4 -10 -6 0 -6 10 -1 10 -6 1 -22 -6
-13 -7 -19 -1 -15 6 3 13 0 15 -6 4 -10 6 -10 6 0 1 6 6 12 12 12 5 0 8 -4 5
-9 -3 -5 8 -11 24 -13 l30 -5 -21 20 c-12 11 -28 17 -40 14 -13 -4 -19 -1 -16
6 2 7 14 11 26 10 14 -2 20 1 15 8 -3 6 0 15 7 20 10 6 8 9 -9 9 -13 0 -20 -4
-17 -10 3 -5 1 -10 -4 -10 -6 0 -11 5 -11 10 0 6 -5 10 -11 10 -5 0 -8 -4 -5
-9z"/>
<path d="M660 533 c0 -5 5 -15 10 -23 7 -12 9 -10 7 8 -1 19 -17 33 -17 15z"/>
<path d="M714 493 c1 -51 -8 -58 -49 -41 -19 9 -19 8 -2 -5 13 -11 14 -16 6
-19 -9 -3 -7 -7 5 -11 10 -4 15 -3 11 3 -6 9 7 13 48 13 11 0 14 4 9 11 -5 6
-8 26 -7 44 0 18 -4 37 -11 43 -8 7 -11 -4 -10 -38z"/>
<path d="M1025 531 c-3 -5 -1 -12 5 -16 5 -3 10 1 10 9 0 18 -6 21 -15 7z"/>
<path d="M495 516 c-26 -27 -26 -36 -3 -32 16 2 22 9 20 22 -5 24 -5 24 -17
10z"/>
<path d="M2008 523 c6 -2 18 -2 25 0 6 3 1 5 -13 5 -14 0 -19 -2 -12 -5z"/>
<path d="M2191 511 c-13 -11 -28 -19 -34 -17 -7 1 -9 1 -4 -1 4 -3 4 -10 0
-16 -5 -9 -3 -9 8 0 9 7 20 9 29 3 16 -10 8 -14 -35 -23 -12 -2 -6 -5 16 -8
26 -3 35 -1 32 7 -2 7 0 15 6 19 7 3 11 -2 11 -14 0 -15 6 -21 23 -20 16 1 18
2 5 6 -10 2 -18 8 -18 13 0 5 7 7 15 3 10 -3 15 0 13 8 -4 18 33 18 55 0 9 -8
20 -11 24 -8 4 4 -2 13 -12 21 -21 15 -72 19 -80 6 -6 -10 -45 -1 -45 11 0 5
7 6 15 3 21 -8 41 6 24 17 -20 12 -23 11 -48 -10z"/>
<path d="M2813 512 c1 -16 7 -17 50 -11 68 11 75 23 8 14 -38 -5 -52 -4 -47 4
4 6 3 11 -3 11 -5 0 -9 -8 -8 -18z"/>
<path d="M2948 523 c12 -2 30 -2 40 0 9 3 -1 5 -23 4 -22 0 -30 -2 -17 -4z"/>
<path d="M74 503 c2 -10 7 -17 12 -15 13 3 11 25 -3 29 -6 2 -10 -4 -9 -14z"/>
<path d="M2390 505 c10 -13 9 -15 -11 -16 -13 0 -18 -3 -11 -6 10 -4 9 -9 -5
-20 -17 -14 -17 -14 0 -9 10 3 23 6 28 6 5 0 8 5 7 12 -2 6 6 14 17 16 11 2
24 8 29 12 5 5 -1 6 -13 3 -12 -3 -21 -1 -21 6 0 6 -7 11 -16 11 -14 0 -14 -3
-4 -15z"/>
<path d="M2635 511 c-6 -5 -19 -11 -30 -14 -11 -3 3 -5 30 -4 28 0 40 2 27 4
-12 2 -20 9 -17 14 8 12 2 12 -10 0z"/>
<path d="M867 493 c4 -16 13 -23 29 -23 13 0 24 5 24 10 0 6 -6 10 -12 10 -9
0 -8 4 2 10 10 7 11 10 2 10 -7 0 -15 -7 -18 -15 -6 -14 -8 -13 -20 2 -12 17
-13 16 -7 -4z"/>
<path d="M1946 498 c5 -8 -7 -9 -47 -5 -30 3 -70 2 -89 -2 -19 -5 -28 -9 -20
-10 8 -1 26 -4 40 -7 19 -4 21 -3 10 5 -13 9 93 7 168 -3 12 -2 22 1 22 5 0 5
-9 9 -20 9 -11 0 -20 5 -20 10 0 6 -5 10 -11 10 -5 0 -7 -6 -3 -12 6 -10 4
-10 -7 0 -16 15 -33 16 -23 0z"/>
<path d="M2039 499 c14 -5 28 -6 32 -2 4 4 -6 9 -24 10 -30 1 -31 1 -8 -8z"/>
<path d="M2978 503 c7 -3 16 -2 19 1 4 3 -2 6 -13 5 -11 0 -14 -3 -6 -6z"/>
<path d="M1320 490 c-9 -6 -10 -10 -3 -10 6 0 15 5 18 10 8 12 4 12 -15 0z"/>
<path d="M1713 493 c9 -2 25 -2 35 0 9 3 1 5 -18 5 -19 0 -27 -2 -17 -5z"/>
<path d="M2095 490 c-18 -8 -17 -9 8 -9 16 -1 26 3 22 9 -3 6 -7 10 -8 9 -1 0
-11 -4 -22 -9z"/>
<path d="M2930 490 c0 -5 7 -10 15 -10 8 0 15 5 15 10 0 6 -7 10 -15 10 -8 0
-15 -4 -15 -10z"/>
<path d="M2485 480 c-23 -4 -30 -8 -17 -9 15 -1 21 -5 16 -13 -5 -10 -4 -10 6
-1 7 6 19 9 28 6 11 -5 13 -3 7 7 -6 10 0 12 31 7 27 -4 34 -3 24 3 -17 11
-35 11 -95 0z"/>
<path d="M2725 480 c-35 -7 -32 -7 17 -5 31 2 58 -1 60 -6 2 -6 28 -7 63 -2
l60 7 -40 7 c-23 4 -43 3 -46 -3 -4 -7 -14 -6 -27 1 -22 12 -26 12 -87 1z"/>
<path d="M2970 486 c0 -2 7 -6 15 -10 8 -3 15 -1 15 4 0 6 -7 10 -15 10 -8 0
-15 -2 -15 -4z"/>
<path d="M1527 469 c10 -3 50 -3 88 1 l70 7 -88 0 c-48 -1 -80 -4 -70 -8z"/>
<path d="M1300 449 c7 -11 14 -18 17 -15 8 8 -5 36 -17 36 -7 0 -7 -6 0 -21z"/>
<path d="M1640 458 c-30 -4 -82 -6 -115 -3 l-60 4 70 -14 c39 -8 79 -14 90
-14 20 0 20 0 0 10 -14 6 -2 8 42 6 33 -1 59 2 56 6 -2 4 7 5 20 1 14 -3 34
-1 44 5 14 8 6 10 -37 9 -30 -1 -80 -6 -110 -10z"/>
<path d="M1913 463 l32 -6 -30 -8 -30 -8 30 2 c40 3 38 21 -2 25 l-33 2 33 -7z"/>
<path d="M2418 463 c7 -3 16 -2 19 1 4 3 -2 6 -13 5 -11 0 -14 -3 -6 -6z"/>
<path d="M2935 461 c-6 -5 -26 -12 -45 -14 -19 -2 -2 -4 38 -4 39 0 72 4 72 8
0 5 -6 9 -14 9 -8 0 -20 2 -28 5 -7 3 -18 1 -23 -4z"/>
<path d="M557 446 c-4 -10 -3 -15 3 -11 6 3 10 1 10 -6 0 -7 3 -10 6 -6 3 3 2
13 -4 22 -8 16 -9 16 -15 1z"/>
<path d="M1360 452 c0 -4 17 -9 37 -10 44 -3 42 3 -4 11 -18 4 -33 3 -33 -1z"/>
<path d="M1986 450 c11 -4 36 -5 55 0 31 7 29 8 -21 8 -39 1 -49 -2 -34 -8z"/>
<path d="M2089 451 c21 -14 -4 -23 -54 -20 -24 2 -47 0 -51 -4 -4 -4 18 -7 48
-7 34 0 60 5 67 13 11 14 5 27 -13 27 -6 0 -5 -4 3 -9z"/>
<path d="M2278 453 c6 -2 10 -8 8 -12 -3 -4 10 -7 27 -8 21 0 24 1 9 4 -12 2
-20 9 -17 14 4 5 -4 9 -17 8 -13 0 -17 -3 -10 -6z"/>
<path d="M2591 456 c2 -3 25 -7 49 -10 31 -4 40 -2 30 4 -14 9 -88 14 -79 6z"/>
<path d="M1270 446 c0 -2 8 -10 18 -17 15 -13 16 -12 3 4 -13 16 -21 21 -21
13z"/>
<path d="M1332 439 c5 -16 78 -27 123 -19 28 5 28 6 8 12 -13 3 -25 3 -28 -2
-5 -8 -74 2 -95 15 -8 5 -11 3 -8 -6z"/>
<path d="M2492 441 c-7 -4 -40 -7 -73 -5 -32 1 -61 -1 -63 -5 -3 -4 35 -7 82
-8 48 -1 81 1 74 4 -6 2 -10 9 -6 14 6 11 3 11 -14 0z"/>
<path d="M2525 440 c3 -5 12 -7 20 -3 21 7 19 13 -6 13 -11 0 -18 -4 -14 -10z"/>
<path d="M2803 443 c9 -2 25 -2 35 0 9 3 1 5 -18 5 -19 0 -27 -2 -17 -5z"/>
<path d="M55 430 c-4 -7 3 -8 22 -4 38 9 42 14 10 14 -14 0 -29 -5 -32 -10z"/>
<path d="M910 435 c0 -2 7 -8 15 -15 12 -10 15 -10 15 2 0 8 -7 15 -15 15 -8
0 -15 -1 -15 -2z"/>
<path d="M1157 426 c-4 -10 -1 -13 9 -9 7 3 14 9 14 14 0 14 -17 10 -23 -5z"/>
<path d="M2158 433 c13 -3 19 -9 16 -15 -4 -7 -2 -8 4 -4 21 13 13 26 -15 25
-24 -2 -25 -2 -5 -6z"/>
<path d="M2583 433 c9 -2 23 -2 30 0 6 3 -1 5 -18 5 -16 0 -22 -2 -12 -5z"/>
<path d="M2688 433 c-2 -5 10 -21 26 -38 16 -16 26 -24 21 -16 -6 10 -1 12 25
6 23 -5 30 -4 26 4 -4 6 -21 11 -38 11 -21 0 -31 6 -35 20 -5 20 -19 27 -25
13z"/>
<path d="M2720 430 c0 -5 7 -10 15 -10 8 0 15 5 15 10 0 6 -7 10 -15 10 -8 0
-15 -4 -15 -10z"/>
<path d="M1535 420 c-3 -6 1 -7 9 -4 18 7 21 14 7 14 -6 0 -13 -4 -16 -10z"/>
<path d="M2238 423 c7 -3 16 -2 19 1 4 3 -2 6 -13 5 -11 0 -14 -3 -6 -6z"/>
<path d="M2625 420 c-16 -5 -13 -8 14 -13 49 -10 57 -9 43 5 -15 15 -31 17
-57 8z"/>
<path d="M125 410 c-3 -5 1 -10 10 -10 9 0 13 5 10 10 -3 6 -8 10 -10 10 -2 0
-7 -4 -10 -10z"/>
<path d="M1710 417 c4 -3 155 -16 213 -17 5 0 5 -5 1 -11 -5 -8 5 -10 32 -7
22 3 51 1 67 -3 15 -4 27 -4 27 2 0 5 -10 9 -22 10 -22 1 -22 1 2 9 22 7 19 8
-15 9 -22 0 -101 3 -175 7 -74 3 -133 4 -130 1z m267 -23 c-3 -3 -12 -4 -19
-1 -8 3 -5 6 6 6 11 1 17 -2 13 -5z"/>
<path d="M2125 410 c-3 -5 -20 -7 -38 -4 -22 4 -28 3 -18 -4 11 -8 11 -10 0
-14 -8 -3 10 -3 39 0 59 5 68 -2 20 -18 -32 -10 -32 -10 -3 -5 87 15 110 16
95 6 -11 -8 -4 -10 30 -10 41 1 42 2 15 9 -16 4 -24 8 -17 9 19 2 14 17 -5 17
-10 1 -27 4 -38 8 -16 6 -17 6 -5 -3 13 -9 12 -11 -5 -11 -11 0 -31 3 -44 7
-23 6 -23 7 -5 14 16 6 16 8 2 8 -9 1 -20 -3 -23 -9z"/>
<path d="M2298 413 c6 -2 18 -2 25 0 6 3 1 5 -13 5 -14 0 -19 -2 -12 -5z"/>
<path d="M2538 413 c7 -3 16 -2 19 1 4 3 -2 6 -13 5 -11 0 -14 -3 -6 -6z"/>
<path d="M2788 400 c19 -12 48 -19 70 -19 33 2 34 2 7 6 -16 2 -44 11 -62 19
-45 20 -53 17 -15 -6z"/>
<path d="M2880 410 c-27 -6 -18 -8 43 -9 45 0 77 3 77 9 0 11 -67 11 -120 0z"/>
<path d="M198 403 c6 -2 18 -2 25 0 6 3 1 5 -13 5 -14 0 -19 -2 -12 -5z"/>
<path d="M780 400 c-8 -5 -11 -12 -7 -17 10 -10 58 -12 51 -2 -2 4 4 12 13 18
16 9 16 10 1 11 -9 0 -20 -4 -23 -10 -3 -5 -11 -10 -16 -10 -6 0 -7 5 -4 10 8
12 4 12 -15 0z"/>
<path d="M1110 396 c0 -9 4 -15 9 -11 5 3 12 1 16 -5 8 -13 -20 -13 -48 1 -21
10 -21 10 -3 -5 21 -17 66 -22 66 -8 0 5 -9 17 -20 27 -19 17 -20 17 -20 1z"/>
<path d="M1270 401 c0 -6 4 -13 10 -16 6 -3 7 1 4 9 -7 18 -14 21 -14 7z"/>
<path d="M1635 398 c27 -5 54 -13 60 -18 12 -10 57 -6 95 8 23 9 22 10 -12 10
-25 0 -36 -4 -31 -11 4 -7 0 -8 -13 -2 -28 11 -95 24 -124 23 -14 0 -3 -5 25
-10z"/>
<path d="M2330 395 c-11 -13 -9 -15 11 -16 13 0 34 -2 47 -5 12 -2 22 0 22 5
0 5 19 7 43 5 31 -3 37 -2 22 5 -26 12 -75 14 -75 2 0 -11 -42 -2 -51 11 -3 5
-12 2 -19 -7z"/>
<path d="M315 390 l-30 -8 27 -1 c15 0 30 4 33 9 3 6 5 9 3 9 -2 -1 -16 -5
-33 -9z"/>
<path d="M743 387 c3 -9 -1 -21 -9 -28 -19 -16 -30 -4 -14 16 7 8 8 15 3 15
-6 0 -14 -10 -20 -22 l-10 -23 -7 23 c-4 12 -12 22 -18 22 -7 0 -6 -5 1 -14
15 -18 0 -29 -26 -19 -16 6 -16 5 -3 -8 9 -9 29 -15 50 -13 19 1 44 -3 55 -9
26 -14 88 -9 98 9 6 11 13 12 28 4 15 -9 19 -7 19 5 0 8 7 15 15 15 8 0 15 5
15 11 0 6 -7 9 -15 5 -8 -3 -15 -1 -15 3 0 5 -7 12 -16 15 -14 5 -15 4 -4 -9
15 -18 -1 -20 -19 -2 -10 10 -12 9 -9 -3 2 -10 -5 -15 -24 -15 -14 1 -25 -2
-22 -6 2 -4 -3 -12 -11 -19 -10 -9 -18 -9 -32 0 -15 9 -15 11 -1 6 25 -7 29
19 6 39 -17 14 -20 14 -15 2z m80 -54 c-7 -2 -19 -2 -25 0 -7 3 -2 5 12 5 14
0 19 -2 13 -5z"/>
<path d="M1166 384 c-3 -8 1 -14 10 -14 8 0 12 -4 9 -10 -3 -5 1 -10 9 -10 21
0 20 6 -3 29 -16 16 -20 17 -25 5z"/>
<path d="M1232 373 c-11 -26 -11 -27 3 -9 15 19 15 19 15 -5 1 -22 2 -22 11
-5 9 14 8 22 -3 32 -13 13 -16 11 -26 -13z"/>
<path d="M1325 387 c-11 -7 -29 -17 -40 -24 -11 -6 -16 -15 -12 -19 4 -4 14 1
23 12 14 17 15 17 10 1 -5 -14 -1 -17 20 -14 14 2 29 7 32 13 11 14 64 13 58
-2 -6 -16 23 -11 34 6 7 12 12 11 27 -2 13 -12 23 -14 33 -8 13 9 13 10 0 11
-8 1 -19 0 -25 -1 -5 -1 -6 2 -2 7 5 4 15 8 23 8 26 0 19 20 -9 22 -15 1 -25
-2 -22 -8 4 -5 1 -9 -4 -9 -6 0 -11 4 -11 9 0 10 -18 9 -35 0 -10 -6 -17 -6
-60 5 -11 2 -29 -1 -40 -7z m25 -28 c0 -6 -4 -7 -10 -4 -5 3 -10 11 -10 16 0
6 5 7 10 4 6 -3 10 -11 10 -16z m94 6 c-4 -8 -7 -15 -9 -15 -2 0 -5 7 -9 15
-3 9 0 15 9 15 9 0 12 -6 9 -15z"/>
<path d="M1540 385 c0 -8 8 -15 18 -15 13 0 14 2 3 9 -11 7 -11 9 0 14 10 4 9
6 -3 6 -10 1 -18 -6 -18 -14z"/>
<path d="M91 374 c0 -11 3 -14 6 -6 3 7 2 16 -1 19 -3 4 -6 -2 -5 -13z"/>
<path d="M940 379 c-11 -8 -9 -9 10 -3 22 6 23 5 11 -10 -7 -9 -10 -16 -6 -16
4 0 4 -6 -1 -13 -5 -7 -1 -4 9 6 17 19 17 19 35 -4 15 -17 21 -19 27 -9 5 8 4
11 -2 7 -5 -3 -20 7 -32 23 -24 33 -29 35 -51 19z"/>
<path d="M1580 376 c0 -9 -5 -16 -11 -16 -6 0 -3 -7 5 -16 9 -8 21 -12 27 -8
8 4 7 9 -2 15 -12 7 -12 10 0 21 10 10 12 10 7 1 -4 -7 -2 -13 4 -13 18 0 6
25 -13 28 -10 2 -17 -3 -17 -12z"/>
<path d="M1830 382 c0 -4 16 -9 36 -10 20 -2 33 1 31 5 -7 11 -67 16 -67 5z"/>
<path d="M2558 383 c6 -2 18 -2 25 0 6 3 1 5 -13 5 -14 0 -19 -2 -12 -5z"/>
<path d="M2690 380 c-13 -8 -12 -10 3 -10 9 0 17 5 17 10 0 12 -1 12 -20 0z"/>
<path d="M3 347 c-1 -30 3 -36 26 -40 14 -3 50 -11 80 -17 29 -6 93 -10 141
-8 49 2 87 0 85 -3 -2 -3 21 -5 51 -5 30 0 54 3 54 8 0 8 -15 12 -37 9 -7 -1
-13 3 -13 10 0 6 -7 9 -15 6 -8 -4 -17 -2 -20 2 -3 5 -24 3 -47 -4 -47 -13
-60 -11 -99 16 -25 17 -29 18 -58 3 -25 -13 -35 -13 -46 -4 -10 8 -15 9 -15 2
0 -7 -10 -6 -27 3 -15 8 -31 11 -36 8 -5 -3 -8 0 -5 7 2 8 10 16 18 18 9 3 10
0 4 -9 -7 -12 -5 -12 9 0 9 7 17 9 17 3 0 -16 65 -24 94 -11 21 10 29 9 43 -4
24 -21 67 -31 99 -23 29 8 23 20 -16 31 -25 7 -25 7 -5 -10 19 -16 19 -16 -7
-1 -16 9 -28 13 -28 9 0 -5 -5 -1 -10 7 -6 9 -10 10 -10 3 0 -9 -7 -8 -27 2
-15 8 -30 11 -33 7 -7 -12 -72 -8 -94 5 -13 7 -28 8 -42 3 -15 -6 -24 -5 -26
2 -2 6 -4 -5 -5 -25z m187 -30 c0 -7 -10 -13 -21 -14 -21 -2 -21 -1 -3 12 24
18 24 18 24 2z"/>
<path d="M355 369 c-4 -6 -5 -12 -2 -15 2 -3 7 2 10 11 7 17 1 20 -8 4z"/>
<path d="M400 365 c0 -8 4 -15 10 -15 5 0 7 7 4 15 -4 8 -8 15 -10 15 -2 0 -4
-7 -4 -15z"/>
<path d="M1638 373 c7 -3 16 -2 19 1 4 3 -2 6 -13 5 -11 0 -14 -3 -6 -6z"/>
<path d="M2525 370 c3 -5 8 -10 11 -10 2 0 4 5 4 10 0 6 -5 10 -11 10 -5 0 -7
-4 -4 -10z"/>
<path d="M2633 373 c9 -2 23 -2 30 0 6 3 -1 5 -18 5 -16 0 -22 -2 -12 -5z"/>
<path d="M520 355 c-7 -9 -11 -17 -9 -20 3 -2 10 5 17 15 14 24 10 26 -8 5z"/>
<path d="M2313 363 c9 -2 25 -2 35 0 9 3 1 5 -18 5 -19 0 -27 -2 -17 -5z"/>
<path d="M2475 360 c-8 -13 5 -13 25 0 13 8 13 10 -2 10 -9 0 -20 -4 -23 -10z"/>
<path d="M2805 360 c-19 -8 -19 -9 2 -9 12 -1 25 4 28 9 7 12 -2 12 -30 0z"/>
<path d="M2907 359 c8 -8 19 -8 40 -1 28 10 28 10 -11 11 -29 1 -37 -2 -29
-10z"/>
<path d="M465 350 c-3 -5 -1 -10 4 -10 6 0 11 5 11 10 0 6 -2 10 -4 10 -3 0
-8 -4 -11 -10z"/>
<path d="M1377 354 c-4 -4 -7 -14 -7 -23 0 -11 3 -12 11 -4 6 6 10 16 7 23 -2
6 -7 8 -11 4z"/>
<path d="M1535 350 c3 -5 8 -10 11 -10 2 0 4 5 4 10 0 6 -5 10 -11 10 -5 0 -7
-4 -4 -10z"/>
<path d="M1630 350 c-18 -12 -22 -11 78 -13 81 -2 117 7 45 11 -21 1 -54 4
-73 7 -19 3 -42 1 -50 -5z"/>
<path d="M1813 344 c0 -16 13 -19 21 -5 3 5 0 11 -7 14 -8 3 -14 -1 -14 -9z"/>
<path d="M2627 353 c-4 -4 -31 -8 -60 -10 -28 -1 -70 -6 -92 -9 -22 -3 -51 -6
-65 -5 -112 3 -442 1 -449 -3 -5 -3 -14 1 -21 9 -15 18 -46 20 -56 4 -5 -8 1
-10 19 -5 14 3 28 2 31 -2 7 -12 -301 -24 -421 -16 -71 5 -102 3 -107 -5 -10
-15 -71 -14 -97 2 -17 10 -23 10 -26 0 -6 -17 -55 -17 -72 0 -11 10 -12 9 -6
-2 6 -11 -12 -12 -108 -6 -74 5 -139 3 -179 -4 -70 -12 -236 -20 -240 -11 -4
9 -108 -1 -108 -10 0 -9 350 -11 365 -2 31 19 147 17 188 -2 19 -10 46 -16 59
-13 21 4 21 4 -4 6 -15 0 -30 6 -34 13 -4 6 -3 9 2 6 18 -11 136 -20 130 -10
-6 11 59 10 70 -1 11 -11 26 -8 19 3 -3 6 -1 10 4 10 22 0 10 -30 -11 -31 -22
0 -22 -1 -3 -9 11 -5 27 -9 35 -9 8 1 10 3 4 5 -7 3 -10 14 -7 24 3 11 9 17
15 14 5 -3 15 0 23 6 18 15 165 14 179 0 7 -7 6 -10 -2 -10 -9 0 -9 -5 0 -20
7 -11 17 -20 22 -20 6 0 5 5 -2 12 -15 15 -16 31 0 22 7 -5 8 -3 3 6 -6 10 -3
12 13 8 12 -4 22 -2 22 3 0 5 18 7 40 4 22 -2 51 0 64 5 16 6 27 6 31 0 4 -6
-1 -10 -9 -10 -9 0 -16 -7 -16 -15 0 -8 8 -15 18 -15 15 0 15 2 2 11 -11 8 -4
9 28 6 23 -3 42 -2 42 3 0 4 7 11 16 14 8 3 13 2 10 -3 -3 -5 1 -14 9 -21 13
-11 14 -10 9 3 -7 20 27 26 76 14 49 -12 110 -14 123 -4 7 5 -9 6 -36 4 -33
-3 -47 -1 -44 7 2 6 27 12 56 13 32 2 50 -1 46 -7 -3 -6 1 -7 9 -4 9 3 13 11
10 16 -4 6 2 5 14 -1 27 -14 54 -15 32 -1 -9 6 -10 10 -3 10 6 0 15 -5 18 -10
4 -6 13 -7 23 -2 24 12 141 7 154 -6 7 -7 17 -12 23 -12 5 0 3 5 -5 11 -12 9
-11 10 6 6 12 -2 30 0 40 6 17 9 18 9 5 -6 -7 -9 -10 -17 -5 -18 5 -1 -2 -4
-16 -8 -22 -7 -20 -8 18 -12 28 -3 42 -1 42 8 0 6 -8 14 -17 16 -13 3 -11 5 7
7 23 1 24 2 5 11 -18 8 -18 9 5 7 14 0 38 4 54 11 16 6 31 9 34 6 3 -2 -6 -9
-19 -14 -21 -8 -20 -9 12 -8 21 1 35 5 32 10 -2 4 10 8 26 8 17 1 37 2 44 2
31 2 97 -14 92 -23 -3 -6 -2 -10 4 -10 5 0 11 5 13 11 2 6 15 10 28 9 14 0 42
-1 62 -2 20 -1 35 -5 33 -9 -7 -10 21 -19 61 -19 23 0 34 5 34 14 0 11 -9 13
-35 9 -20 -3 -41 -1 -49 6 -8 7 -25 9 -42 5 -19 -5 -25 -4 -20 5 6 8 -8 11
-51 10 -32 0 -82 4 -112 10 -64 13 -56 13 -64 4z m-762 -53 c-3 -5 -18 -10
-33 -9 l-27 1 25 8 c35 11 42 11 35 0z"/>
<path d="M2738 353 c7 -3 16 -2 19 1 4 3 -2 6 -13 5 -11 0 -14 -3 -6 -6z"/>
<path d="M1047 343 c-14 -13 -7 -25 8 -13 8 7 22 10 30 6 9 -3 13 -2 10 4 -7
11 -38 13 -48 3z"/>
<path d="M2093 343 c9 -2 25 -2 35 0 9 3 1 5 -18 5 -19 0 -27 -2 -17 -5z"/>
<path d="M2373 343 c9 -2 25 -2 35 0 9 3 1 5 -18 5 -19 0 -27 -2 -17 -5z"/>
<path d="M535 330 c-8 -13 5 -13 25 0 13 8 13 10 -2 10 -9 0 -20 -4 -23 -10z"/>
<path d="M395 315 c17 -8 36 -14 43 -15 6 0 12 -5 12 -11 0 -5 5 -7 10 -4 18
11 11 25 -13 25 -13 0 -27 3 -31 7 -3 4 -17 8 -29 9 -17 2 -16 0 8 -11z"/>
<path d="M608 323 c6 -2 18 -2 25 0 6 3 1 5 -13 5 -14 0 -19 -2 -12 -5z"/>
<path d="M690 316 c0 -2 11 -6 25 -8 13 -3 22 -1 19 3 -5 9 -44 13 -44 5z"/>
<path d="M2645 301 c-17 -7 -15 -9 12 -13 26 -4 30 -2 22 9 -7 7 -12 13 -13
12 0 0 -10 -4 -21 -8z"/>
<path d="M2690 306 c0 -9 39 -13 51 -5 10 6 4 9 -18 9 -18 0 -33 -2 -33 -4z"/>
<path d="M2802 285 l-23 -24 31 9 c36 10 34 10 66 10 15 0 23 4 19 10 -4 6
-22 8 -43 5 -28 -5 -33 -4 -22 4 8 6 11 11 5 11 -5 0 -20 -11 -33 -25z"/>
<path d="M530 289 c11 -8 5 -9 -23 -4 -27 4 -37 3 -32 -4 3 -6 19 -11 35 -11
15 0 30 -4 32 -9 2 -5 61 -11 131 -12 71 -2 131 -7 133 -11 3 -4 1 -8 -5 -8
-6 0 -8 -7 -5 -15 5 -11 -2 -16 -22 -17 -25 -2 -204 -6 -298 -7 -17 0 -27 -3
-24 -7 13 -12 403 -2 417 11 2 2 -12 8 -30 14 l-34 9 45 3 45 2 -40 7 -40 7
40 2 c63 4 91 21 30 19 -27 -1 -115 -1 -194 0 -119 2 -142 4 -138 16 3 8 -1
17 -9 20 -24 9 -31 7 -14 -5z"/>
<path d="M2215 290 c-11 -4 -33 -6 -50 -4 -29 4 -29 4 5 -10 l35 -14 -30 -4
-30 -5 33 -2 c22 -1 32 3 32 14 0 8 4 15 10 15 5 0 7 -8 4 -17 -5 -14 -4 -15
4 -4 5 7 15 17 22 21 18 11 -10 19 -35 10z"/>
<path d="M2358 293 c7 -3 16 -2 19 1 4 3 -2 6 -13 5 -11 0 -14 -3 -6 -6z"/>
<path d="M1454 282 c5 -9 74 -7 83 2 4 3 -15 6 -41 6 -26 0 -45 -3 -42 -8z"/>
<path d="M1556 281 c-3 -5 0 -11 8 -14 8 -3 17 1 20 9 6 15 -19 20 -28 5z"/>
<path d="M1935 281 c-3 -6 3 -15 14 -20 25 -14 31 -14 31 -1 0 6 -9 10 -21 10
-11 0 -17 5 -14 10 3 6 4 10 1 10 -3 0 -7 -4 -11 -9z"/>
<path d="M2518 283 c6 -2 10 -9 6 -14 -9 -15 2 -10 16 6 10 13 9 15 -11 14
-13 0 -18 -3 -11 -6z"/>
<path d="M0 270 c0 -5 10 -10 23 -10 12 0 29 -5 37 -11 13 -9 13 -10 -1 -6 -9
3 -22 1 -30 -4 -10 -7 -4 -9 21 -8 19 1 52 -2 74 -6 28 -5 36 -3 31 5 -4 6
-16 10 -26 7 -11 -3 -19 0 -19 5 0 6 12 8 29 5 16 -4 31 -3 34 1 2 4 2 1 1 -5
-2 -7 3 -13 11 -13 8 0 15 3 15 8 0 4 14 8 32 9 33 3 29 -11 -7 -21 -11 -3 -6
-3 10 -1 47 6 132 33 110 35 -92 7 -116 7 -121 -1 -3 -5 -12 -5 -22 0 -10 5
-36 6 -62 1 -58 -12 -62 -12 -56 -1 3 5 -8 11 -25 15 -44 9 -59 8 -59 -4z"/>
<path d="M1020 274 c0 -1 6 -7 14 -13 10 -9 15 -8 19 3 4 10 0 14 -14 13 -10
-1 -19 -2 -19 -3z"/>
<path d="M2300 270 c-12 -8 -11 -10 8 -10 12 0 22 5 22 10 0 13 -11 13 -30 0z"/>
<path d="M2364 272 c-8 -5 -7 -11 4 -22 14 -13 15 -12 9 2 -3 9 -1 19 6 22 7
2 8 5 2 5 -5 0 -15 -3 -21 -7z"/>
<path d="M2885 270 l-30 -8 30 0 c17 0 50 3 75 7 l45 8 -45 1 c-25 0 -58 -4
-75 -8z"/>
<path d="M455 261 c-3 -5 -1 -12 4 -15 5 -3 11 1 15 9 6 16 -9 21 -19 6z"/>
<path d="M965 260 c18 -7 18 -8 -7 -15 -16 -4 -28 -11 -28 -16 0 -5 13 -3 30
6 16 8 37 15 47 16 13 1 11 3 -7 9 -33 11 -61 11 -35 0z"/>
<path d="M1413 263 c9 -2 23 -2 30 0 6 3 -1 5 -18 5 -16 0 -22 -2 -12 -5z"/>
<path d="M1526 262 c-4 -7 -19 -12 -34 -12 -21 0 -24 -2 -12 -10 12 -8 11 -10
-5 -10 -12 0 -26 5 -33 12 -9 9 -15 9 -24 -1 -11 -10 -10 -11 4 -6 12 5 20 1
24 -9 7 -19 -4 -35 -14 -21 -10 14 -72 35 -72 25 0 -5 6 -10 13 -13 10 -4 -67
-6 -223 -8 -15 0 -19 -3 -10 -6 8 -3 18 -11 22 -17 5 -8 8 -7 8 2 0 8 14 12
43 11 l42 -2 -40 -7 -40 -7 48 -2 c27 0 46 2 43 7 -2 4 22 8 55 8 33 1 62 4
65 7 4 3 17 2 31 -4 33 -12 43 -11 43 5 0 17 35 29 75 27 17 -1 25 2 19 6 -6
4 -13 15 -16 23 -3 10 -6 11 -12 2z"/>
<path d="M1649 256 c6 -8 25 -16 41 -18 28 -4 29 -4 13 14 -20 22 -72 26 -54
4z"/>
<path d="M2050 260 c-25 -4 -36 -8 -25 -9 20 -2 20 -2 0 -11 -14 -6 -15 -9 -4
-9 8 -1 19 3 25 8 5 5 25 11 46 15 33 6 37 4 46 -21 6 -15 11 -22 11 -15 2 24
-19 52 -37 50 -9 0 -37 -4 -62 -8z"/>
<path d="M2248 263 c6 -2 18 -2 25 0 6 3 1 5 -13 5 -14 0 -19 -2 -12 -5z"/>
<path d="M2631 253 c-7 -8 -22 -12 -32 -10 -11 3 -21 1 -24 -4 -3 -4 -12 -6
-20 -3 -7 3 -22 1 -32 -5 -14 -7 -2 -10 48 -8 37 1 62 5 57 8 -5 3 -2 9 8 13
10 4 24 0 35 -10 10 -9 24 -14 31 -11 8 3 5 6 -7 8 -11 1 0 5 25 9 l45 7 -50
1 c-28 1 -55 6 -60 11 -6 6 -15 3 -24 -6z"/>
<path d="M509 244 c13 -10 47 -16 91 -17 39 -1 70 -5 70 -9 0 -5 10 -7 23 -7
20 1 20 2 2 7 -20 5 -20 5 0 13 20 9 20 9 0 8 -67 -4 -175 2 -171 9 2 4 -5 9
-16 9 -21 2 -21 2 1 -13z"/>
<path d="M1084 249 c-3 -5 0 -9 6 -9 6 0 9 -4 6 -9 -4 -5 9 -6 29 -1 20 4 45
6 58 3 12 -3 19 -3 16 1 -10 11 -109 24 -115 15z"/>
<path d="M1315 250 c3 -5 8 -10 11 -10 2 0 4 5 4 10 0 6 -5 10 -11 10 -5 0 -7
-4 -4 -10z"/>
<path d="M1728 248 c5 -5 16 -8 23 -6 8 3 3 7 -10 11 -17 4 -21 3 -13 -5z"/>
<path d="M396 241 c-3 -5 -16 -7 -28 -3 -16 4 -19 2 -13 -8 6 -10 1 -12 -23
-7 -20 4 -32 2 -32 -4 0 -6 -5 -7 -12 -3 -7 4 -8 3 -4 -4 9 -15 113 -16 122
-1 4 7 26 9 56 7 29 -3 45 -1 40 4 -5 5 -24 10 -44 12 -19 2 -40 6 -46 10 -6
3 -13 2 -16 -3z"/>
<path d="M1796 234 c-5 -13 -3 -14 6 -7 7 6 20 13 28 16 10 4 8 6 -6 6 -12 1
-25 -6 -28 -15z"/>
<path d="M1923 243 c9 -2 23 -2 30 0 6 3 -1 5 -18 5 -16 0 -22 -2 -12 -5z"/>
<path d="M2469 245 c-3 -2 -21 -5 -42 -7 -20 -1 -33 -6 -28 -11 4 -4 32 -2 62
7 30 8 45 15 33 15 -11 1 -23 -1 -25 -4z"/>
<path d="M2795 240 c-8 -13 5 -13 25 0 13 8 13 10 -2 10 -9 0 -20 -4 -23 -10z"/>
<path d="M2868 243 c7 -3 16 -2 19 1 4 3 -2 6 -13 5 -11 0 -14 -3 -6 -6z"/>
<path d="M2904 236 c-11 -9 -30 -12 -46 -9 -22 4 -28 2 -28 -11 0 -10 -4 -15
-9 -11 -5 3 -13 0 -17 -6 -7 -11 36 -6 80 11 11 4 40 3 64 -2 44 -8 62 -5 49
8 -3 4 -19 7 -36 8 -16 1 -33 5 -38 10 -4 4 9 6 29 5 20 -2 40 0 44 4 14 14
-72 7 -92 -7z m-37 -22 c-3 -3 -12 -4 -19 -1 -8 3 -5 6 6 6 11 1 17 -2 13 -5z"/>
<path d="M1238 233 c7 -3 16 -2 19 1 4 3 -2 6 -13 5 -11 0 -14 -3 -6 -6z"/>
<path d="M1970 230 c0 -5 7 -7 15 -4 8 4 15 8 15 10 0 2 -7 4 -15 4 -8 0 -15
-4 -15 -10z"/>
<path d="M2057 233 c-10 -9 -9 -23 1 -23 5 0 9 7 9 15 0 17 -1 18 -10 8z"/>
<path d="M2080 230 c0 -5 11 -9 24 -8 14 1 22 6 20 10 -7 12 -44 10 -44 -2z"/>
<path d="M2223 228 c1 -7 -13 -15 -33 -18 -21 -3 -29 -8 -20 -11 8 -4 35 -3
60 1 25 4 35 8 23 9 -16 1 -21 6 -17 16 4 8 1 15 -5 15 -6 0 -10 -5 -8 -12z"/>
<path d="M2304 225 c-4 -8 -11 -12 -17 -8 -6 4 -7 1 -2 -7 6 -10 11 -9 22 6
11 15 17 16 32 7 14 -9 18 -8 18 3 0 19 -46 18 -53 -1z"/>
<path d="M955 214 c-11 -8 -12 -14 -6 -19 6 -3 11 -1 11 5 0 8 19 11 60 8 69
-4 68 8 -2 14 -26 2 -55 -2 -63 -8z"/>
<path d="M1885 221 c-12 -12 -105 -15 -156 -6 -24 5 -39 3 -44 -5 -5 -9 -1
-10 14 -5 12 4 27 2 34 -3 7 -6 42 -12 80 -14 56 -2 68 0 73 14 3 9 13 19 22
21 14 4 14 5 2 6 -9 0 -20 -3 -25 -8z"/>
<path d="M2750 213 c-18 -9 -20 -13 -8 -13 9 0 19 4 23 10 3 5 12 7 20 3 8 -3
15 -3 15 0 0 12 -27 12 -50 0z"/>
<path d="M25 210 c-16 -7 -17 -9 -3 -9 9 -1 20 4 23 9 7 11 7 11 -20 0z"/>
<path d="M1568 213 c7 -3 16 -2 19 1 4 3 -2 6 -13 5 -11 0 -14 -3 -6 -6z"/>
<path d="M1608 213 c7 -3 16 -2 19 1 4 3 -2 6 -13 5 -11 0 -14 -3 -6 -6z"/>
<path d="M1655 210 c3 -5 8 -10 11 -10 2 0 4 5 4 10 0 6 -5 10 -11 10 -5 0 -7
-4 -4 -10z"/>
<path d="M2567 213 c-33 -9 -9 -19 35 -14 34 3 39 6 23 12 -22 8 -32 9 -58 2z"/>
<path d="M70 199 c0 -4 -16 -11 -35 -15 -19 -3 -35 -10 -35 -14 0 -10 90 -18
96 -8 3 5 -7 8 -23 8 -25 1 -26 2 -9 12 10 6 42 14 70 18 l51 8 -57 -1 c-32 0
-58 -4 -58 -8z"/>
<path d="M458 203 c7 -3 16 -2 19 1 4 3 -2 6 -13 5 -11 0 -14 -3 -6 -6z"/>
<path d="M1488 203 c7 -3 16 -2 19 1 4 3 -2 6 -13 5 -11 0 -14 -3 -6 -6z"/>
<path d="M2378 203 c6 -2 18 -2 25 0 6 3 1 5 -13 5 -14 0 -19 -2 -12 -5z"/>
<path d="M2659 199 c-10 -6 -4 -9 19 -9 17 0 32 2 32 4 0 9 -39 13 -51 5z"/>
<path d="M249 187 c5 -5 28 -7 52 -5 l44 3 -52 5 c-29 3 -48 1 -44 -3z"/>
<path d="M1085 190 c-3 -5 1 -10 10 -10 9 0 13 5 10 10 -3 6 -8 10 -10 10 -2
0 -7 -4 -10 -10z"/>
<path d="M1518 188 c-8 -4 6 -8 35 -8 26 0 47 3 47 8 0 10 -66 10 -82 0z"/>
<path d="M1930 189 c19 -5 44 -14 55 -21 17 -10 18 -9 8 4 -7 8 -11 17 -9 19
3 2 -17 5 -42 5 -46 1 -47 1 -12 -7z"/>
<path d="M2000 189 c0 -10 50 -8 56 2 3 5 -8 8 -25 7 -17 -1 -31 -5 -31 -9z"/>
<path d="M2330 191 c0 -6 -10 -11 -22 -11 -28 0 -20 -7 15 -14 15 -3 25 -1 22
4 -4 6 25 8 69 5 42 -2 78 1 81 6 4 5 -20 9 -57 9 -35 0 -73 3 -85 6 -14 4
-23 2 -23 -5z"/>
<path d="M2775 190 c3 -5 8 -10 11 -10 2 0 4 5 4 10 0 6 -5 10 -11 10 -5 0 -7
-4 -4 -10z"/>
<path d="M2928 193 c6 -2 18 -2 25 0 6 3 1 5 -13 5 -14 0 -19 -2 -12 -5z"/>
<path d="M368 183 c6 -2 18 -2 25 0 6 3 1 5 -13 5 -14 0 -19 -2 -12 -5z"/>
<path d="M418 183 c7 -3 16 -2 19 1 4 3 -2 6 -13 5 -11 0 -14 -3 -6 -6z"/>
<path d="M1318 183 c7 -3 16 -2 19 1 4 3 -2 6 -13 5 -11 0 -14 -3 -6 -6z"/>
<path d="M1465 180 c-3 -5 1 -10 10 -10 9 0 13 5 10 10 -3 6 -8 10 -10 10 -2
0 -7 -4 -10 -10z"/>
<path d="M1640 183 c19 -3 38 -10 42 -16 5 -9 11 -8 20 2 8 9 9 11 1 7 -6 -3
-14 -2 -18 4 -3 5 -23 9 -43 8 l-37 -1 35 -4z"/>
<path d="M2070 178 c0 -12 7 -18 23 -17 15 0 17 2 7 6 -8 3 -18 11 -22 17 -5
7 -8 4 -8 -6z"/>
<path d="M2190 173 c-13 -15 -12 -16 4 -10 10 4 20 7 22 7 2 0 4 5 4 10 0 15
-13 12 -30 -7z"/>
<path d="M113 163 c0 -9 7 -11 19 -7 14 4 21 0 25 -15 3 -11 9 -19 13 -16 13
8 120 14 116 6 -2 -3 31 -7 73 -7 49 -1 67 1 51 6 -14 4 -43 8 -66 9 -22 1
-44 4 -48 8 -4 4 -23 6 -42 4 -24 -2 -36 2 -40 13 -3 9 -11 16 -16 16 -6 0 -6
-6 2 -14 10 -13 7 -14 -17 -12 -39 5 -40 5 -23 16 10 6 6 9 -16 8 -19 -1 -31
-6 -31 -15z"/>
<path d="M945 169 c22 -4 54 -8 70 -7 22 0 19 3 -15 9 -60 10 -108 9 -55 -2z"/>
<path d="M2142 164 c10 -10 20 -16 22 -13 3 3 -5 11 -17 18 -21 13 -21 12 -5
-5z"/>
<path d="M2238 173 c6 -2 18 -2 25 0 6 3 1 5 -13 5 -14 0 -19 -2 -12 -5z"/>
<path d="M2545 173 c11 -2 29 -9 40 -14 11 -6 38 -8 60 -5 22 2 63 5 90 6 36
1 44 4 30 9 -11 5 -29 7 -40 6 -11 -1 -45 -6 -76 -10 -38 -5 -59 -3 -63 4 -4
6 -19 10 -34 10 -20 -1 -22 -2 -7 -6z"/>
<path d="M2805 175 c25 -9 104 -12 99 -4 -3 5 -29 9 -57 8 -29 0 -47 -2 -42
-4z"/>
<path d="M2942 170 c10 -6 25 -7 40 -1 20 9 18 10 -17 10 -31 0 -36 -2 -23 -9z"/>
<path d="M390 160 c-9 -6 -10 -10 -3 -10 6 0 15 5 18 10 8 12 4 12 -15 0z"/>
<path d="M445 163 c17 -3 35 -9 40 -13 6 -5 17 -5 24 -1 16 10 -21 21 -64 19
l-30 -1 30 -4z"/>
<path d="M1095 161 c-29 -7 -28 -7 15 -13 24 -4 47 -5 50 -2 5 5 -21 25 -30
23 -3 -1 -18 -4 -35 -8z"/>
<path d="M1265 160 c-16 -7 -17 -9 -3 -9 9 -1 20 4 23 9 7 11 7 11 -20 0z"/>
<path d="M1569 161 c12 -8 51 -4 51 5 0 2 -15 4 -32 4 -23 0 -29 -3 -19 -9z"/>
<path d="M1630 155 c-7 -8 -27 -16 -44 -16 -24 -1 -26 -3 -8 -6 24 -5 82 16
82 29 0 13 -17 9 -30 -7z"/>
<path d="M738 153 c7 -3 16 -2 19 1 4 3 -2 6 -13 5 -11 0 -14 -3 -6 -6z"/>
<path d="M788 153 c6 -2 18 -2 25 0 6 3 1 5 -13 5 -14 0 -19 -2 -12 -5z"/>
<path d="M830 150 c0 -5 -12 -11 -27 -11 -23 -1 -24 -2 -6 -6 12 -2 34 3 50
11 26 14 27 15 6 16 -13 0 -23 -4 -23 -10z"/>
<path d="M889 151 c12 -8 51 -4 51 5 0 2 -15 4 -32 4 -23 0 -29 -3 -19 -9z"/>
<path d="M956 148 c5 -8 -10 -12 -35 -9 -23 4 -2 -16 24 -21 13 -3 22 -1 19 3
-3 5 12 9 33 9 28 0 34 -3 23 -10 -11 -7 -3 -10 30 -11 208 -7 263 -7 250 1
-13 8 -12 10 2 10 9 0 22 -8 27 -17 6 -11 11 -13 11 -5 0 7 6 12 13 11 6 -1
35 0 62 1 47 2 45 3 -35 15 -98 15 -212 24 -204 16 3 -3 29 -9 57 -13 33 -4
14 -5 -53 -3 -58 2 -133 10 -167 18 -34 7 -60 10 -57 5z"/>
<path d="M1360 150 c-9 -6 -10 -10 -3 -10 6 0 15 5 18 10 8 12 4 12 -15 0z"/>
<path d="M1398 153 c7 -3 16 -2 19 1 4 3 -2 6 -13 5 -11 0 -14 -3 -6 -6z"/>
<path d="M1455 150 l-30 -7 28 -11 c35 -15 47 -15 27 -1 -12 8 -12 10 5 8 35
-2 46 1 40 11 -7 11 -25 11 -70 0z"/>
<path d="M1685 145 l-50 -13 42 -1 c46 -1 73 6 73 20 0 11 -1 11 -65 -6z"/>
<path d="M1898 154 c-4 -3 -33 -8 -65 -11 -32 -2 -60 -7 -62 -9 -12 -11 11
-12 78 -3 52 7 76 7 81 0 5 -10 261 -19 310 -11 37 5 -61 19 -110 15 -42 -3
-48 -2 -25 4 28 8 28 9 5 9 -14 0 -51 -3 -82 -7 -34 -4 -58 -3 -58 2 0 5 -7 7
-15 4 -8 -4 -17 -2 -20 3 -7 11 -28 13 -37 4z"/>
<path d="M2465 150 c-3 -5 1 -10 10 -10 9 0 13 5 10 10 -3 6 -8 10 -10 10 -2
0 -7 -4 -10 -10z"/>
<path d="M2528 153 c6 -2 18 -2 25 0 6 3 1 5 -13 5 -14 0 -19 -2 -12 -5z"/>
<path d="M2797 154 c-3 -4 -21 -8 -39 -10 -18 -2 -49 -11 -69 -18 -20 -8 -38
-14 -41 -13 -2 1 -1 -1 2 -4 3 -3 30 -3 60 0 48 4 51 5 25 12 -26 6 -24 7 20
10 28 1 61 4 75 5 14 1 32 3 40 3 13 1 13 2 0 11 -17 11 -63 13 -73 4z"/>
<path d="M2924 148 c-4 -7 -3 -8 4 -4 7 4 12 2 12 -3 0 -6 -7 -11 -16 -11 -8
0 -13 -4 -10 -9 4 -5 -24 -7 -64 -4 -41 3 -70 1 -70 -4 0 -5 14 -8 30 -5 18 3
30 0 30 -7 0 -6 5 -11 11 -11 5 0 8 4 5 8 -2 4 12 9 32 10 93 5 112 8 112 19
0 6 -9 9 -20 6 -11 -3 -20 -1 -20 5 0 15 -28 23 -36 10z"/>
<path d="M433 143 c9 -2 23 -2 30 0 6 3 -1 5 -18 5 -16 0 -22 -2 -12 -5z"/>
<path d="M688 143 c-35 -9 -17 -18 28 -15 25 2 44 5 42 7 -8 6 -55 12 -70 8z"/>
<path d="M2278 143 c7 -3 16 -2 19 1 4 3 -2 6 -13 5 -11 0 -14 -3 -6 -6z"/>
<path d="M2425 143 c-19 -5 -35 -20 -35 -35 0 -10 49 16 55 30 2 6 3 11 2 11
-1 -1 -11 -4 -22 -6z"/>
<path d="M73 127 c42 -7 62 -6 70 2 8 8 -7 11 -59 10 l-69 -2 58 -10z"/>
<path d="M545 132 c-22 -2 -44 -8 -50 -14 -7 -7 -6 -9 2 -4 6 3 36 7 67 7 31
1 56 3 56 4 0 6 -38 10 -75 7z"/>
<path d="M2345 130 c-4 -6 -10 -8 -14 -6 -4 3 -8 -5 -8 -17 -2 -20 -1 -20 8
-4 6 10 20 22 32 27 17 7 18 9 5 9 -9 1 -20 -4 -23 -9z"/>
<path d="M2559 136 c-3 -3 -24 -6 -47 -7 -40 -3 -56 -19 -32 -34 6 -4 9 -1 8
6 -2 8 16 16 52 21 66 10 84 16 49 17 -14 1 -28 -1 -30 -3z"/>
<path d="M795 121 c-63 -10 -25 -22 59 -20 63 2 72 5 58 16 -18 13 -50 14
-117 4z"/>
<path d="M1520 120 c0 -5 6 -10 14 -10 8 0 23 -3 33 -6 10 -3 7 2 -7 10 -30
18 -40 20 -40 6z"/>
<path d="M1726 121 c-4 -5 3 -7 14 -4 23 6 26 13 6 13 -8 0 -17 -4 -20 -9z"/>
<path d="M200 116 c0 -8 61 -12 66 -4 3 4 -11 8 -30 8 -20 0 -36 -2 -36 -4z"/>
<path d="M325 110 c27 -12 43 -12 25 0 -8 5 -22 9 -30 9 -10 0 -8 -3 5 -9z"/>
<path d="M700 109 c0 -5 -11 -9 -25 -9 -14 0 -25 -5 -25 -10 0 -7 -6 -7 -20 0
-14 7 -20 7 -20 0 0 -5 8 -10 17 -10 9 0 14 -3 10 -6 -9 -10 -59 5 -52 16 3 5
-4 8 -15 7 -26 -2 -25 -3 8 -21 38 -21 4 -20 -38 0 -51 26 -177 20 -236 -11
l-27 -14 38 -7 c21 -4 74 -4 119 0 44 3 107 8 138 10 36 2 65 9 76 19 21 19
48 22 57 7 3 -5 36 -9 73 -8 l67 1 -60 7 c-33 4 -52 7 -42 8 10 1 16 6 13 11
-8 12 -56 20 -56 10z m-193 -35 c-12 -12 -109 -23 -140 -16 l-32 7 40 6 c56 9
140 10 132 3z"/>
<path d="M1596 105 c5 -12 64 -16 64 -4 0 4 12 10 28 12 15 2 -1 4 -34 3 -36
-1 -60 -5 -58 -11z"/>
<path d="M1860 116 c0 -9 39 -13 51 -5 10 6 4 9 -18 9 -18 0 -33 -2 -33 -4z"/>
<path d="M2259 118 c-6 -21 -5 -37 2 -32 5 3 7 9 4 14 -3 5 7 11 22 13 l28 4
-27 2 c-16 0 -28 0 -29 -1z"/>
<path d="M2580 110 c8 -5 24 -10 34 -10 26 0 18 6 -19 14 -22 5 -26 4 -15 -4z"/>
<path d="M63 103 c9 -2 25 -2 35 0 9 3 1 5 -18 5 -19 0 -27 -2 -17 -5z"/>
<path d="M143 103 c9 -2 23 -2 30 0 6 3 -1 5 -18 5 -16 0 -22 -2 -12 -5z"/>
<path d="M1736 101 c-18 -7 -16 -9 12 -19 19 -6 32 -7 32 -1 0 5 -8 9 -17 9
-15 0 -16 2 -3 10 18 11 3 12 -24 1z"/>
<path d="M1973 103 c9 -2 23 -2 30 0 6 3 -1 5 -18 5 -16 0 -22 -2 -12 -5z"/>
<path d="M2048 103 c7 -3 16 -2 19 1 4 3 -2 6 -13 5 -11 0 -14 -3 -6 -6z"/>
<path d="M2140 100 c-11 -7 -5 -8 20 -4 43 8 51 14 19 14 -13 0 -31 -5 -39
-10z"/>
<path d="M2525 101 c3 -5 2 -12 -3 -15 -14 -8 -313 -16 -308 -7 3 4 -1 8 -8 8
-22 0 -7 -25 17 -30 25 -6 146 -1 253 9 49 4 71 11 71 20 0 7 -7 16 -14 18 -8
3 -11 2 -8 -3z"/>
<path d="M2946 102 c-3 -5 1 -9 9 -9 8 0 15 4 15 9 0 4 -4 8 -9 8 -6 0 -12 -4
-15 -8z"/>
<path d="M965 90 c-34 -5 -27 -7 38 -11 42 -2 77 -1 77 4 0 4 -10 7 -22 8 -13
0 -30 2 -38 3 -8 1 -33 -1 -55 -4z"/>
<path d="M1686 87 c3 -10 9 -15 12 -12 3 3 0 11 -7 18 -10 9 -11 8 -5 -6z"/>
<path d="M2670 90 c-4 -3 25 -6 65 -8 40 -1 76 1 78 5 5 9 -129 12 -143 3z"/>
<path d="M90 80 c20 -13 33 -13 25 0 -3 6 -14 10 -23 10 -15 0 -15 -2 -2 -10z"/>
<path d="M1920 86 c0 -8 48 -12 66 -5 13 5 7 8 -23 8 -24 1 -43 -1 -43 -3z"/>
<path d="M2019 81 c11 -7 9 -10 -10 -14 -19 -3 -16 -5 11 -6 19 -2 46 -4 60
-7 19 -3 21 -2 10 6 -10 6 -11 10 -2 10 6 0 12 5 12 10 0 14 -27 12 -33 -2 -4
-10 -7 -10 -18 0 -7 6 -20 12 -28 12 -13 0 -14 -2 -2 -9z"/>
<path d="M2878 83 c7 -3 16 -2 19 1 4 3 -2 6 -13 5 -11 0 -14 -3 -6 -6z"/>
<path d="M14 66 c17 -14 103 -24 140 -17 5 1 22 3 37 4 15 1 26 4 24 7 -2 3
-43 5 -92 4 -48 -1 -97 2 -108 7 -20 10 -20 10 -1 -5z"/>
<path d="M243 73 c9 -2 25 -2 35 0 9 3 1 5 -18 5 -19 0 -27 -2 -17 -5z"/>
<path d="M1180 76 c0 -2 7 -7 16 -10 8 -3 12 -2 9 4 -6 10 -25 14 -25 6z"/>
<path d="M1245 70 c-19 -8 -19 -9 2 -9 12 -1 25 4 28 9 7 12 -2 12 -30 0z"/>
<path d="M1335 70 c-17 -4 6 -6 55 -3 46 2 87 6 89 9 7 7 -111 2 -144 -6z"/>
<path d="M2123 73 c9 -2 25 -2 35 0 9 3 1 5 -18 5 -19 0 -27 -2 -17 -5z"/>
<path d="M2560 71 c0 -5 17 -7 39 -4 23 3 41 1 45 -6 4 -6 12 -11 17 -11 6 0
4 7 -5 15 -16 16 -96 21 -96 6z"/>
<path d="M670 61 c0 -14 34 -23 67 -16 21 5 24 4 13 -4 -13 -9 -13 -11 3 -11
9 0 17 4 17 9 0 5 17 9 38 10 20 0 56 2 80 4 23 2 42 0 42 -5 0 -4 -9 -8 -19
-8 -11 0 -23 -4 -26 -10 -8 -13 28 -13 40 -1 6 6 36 11 67 13 62 3 80 17 26
19 -38 2 -151 1 -256 -1 -39 0 -77 2 -82 5 -6 3 -10 2 -10 -4z"/>
<path d="M1490 61 c0 -8 119 -3 129 5 2 2 -26 4 -62 4 -37 0 -67 -4 -67 -9z"/>
<path d="M1664 61 c4 -5 3 -11 -1 -14 -5 -2 -2 -2 5 0 8 1 21 3 30 4 14 0 13
2 -3 9 -27 12 -37 12 -31 1z"/>
<path d="M1750 61 c-29 -4 -24 -6 30 -11 l65 -5 -45 -12 c-25 -6 -37 -11 -27
-12 10 -1 16 -5 13 -9 -2 -4 4 -8 14 -8 10 0 16 5 13 12 -5 12 25 23 72 25 23
1 19 3 -17 9 -25 5 -54 10 -65 12 -10 3 -34 2 -53 -1z"/>
<path d="M2918 63 c18 -2 45 -2 60 0 15 2 0 4 -33 4 -33 0 -45 -2 -27 -4z"/>
<path d="M2759 49 c-11 -7 -10 -9 6 -10 16 -1 15 -2 -5 -8 -17 -5 9 -11 85
-19 133 -15 148 -15 140 -2 -3 5 -12 7 -19 4 -16 -6 -144 19 -172 34 -13 7
-26 7 -35 1z"/>
<path d="M3 33 c1 -16 12 -18 133 -18 73 0 130 3 127 8 -2 4 6 7 19 8 20 1 19
2 -7 10 -16 4 -32 5 -35 0 -4 -8 -17 -10 -72 -12 -58 -2 -145 5 -155 13 -8 7
-11 4 -10 -9z"/>
<path d="M585 40 c-23 -6 -25 -8 -8 -9 12 0 29 -4 39 -8 11 -4 15 -3 10 5 -3
6 3 12 16 15 21 4 21 4 -2 4 -14 1 -38 -3 -55 -7z"/>
<path d="M1199 43 c-93 -12 -88 -18 21 -23 117 -5 141 -4 102 7 -12 3 -20 8
-18 12 4 5 -70 9 -105 4z"/>
<path d="M1571 40 c9 -5 36 -12 60 -15 31 -3 37 -3 19 3 -43 15 -97 23 -79 12z"/>
<path d="M1950 40 c-12 -8 -9 -10 13 -10 16 0 26 4 22 10 -8 12 -16 12 -35 0z"/>
<path d="M2655 40 l-50 -7 55 -1 c30 -1 62 3 70 8 17 11 7 11 -75 0z"/>
<path d="M2980 40 c-13 -8 -12 -10 3 -10 9 0 17 5 17 10 0 12 -1 12 -20 0z"/>
<path d="M493 33 c9 -2 25 -2 35 0 9 3 1 5 -18 5 -19 0 -27 -2 -17 -5z"/>
<path d="M1488 33 c7 -3 16 -2 19 1 4 3 -2 6 -13 5 -11 0 -14 -3 -6 -6z"/>
<path d="M1728 33 c7 -3 16 -2 19 1 4 3 -2 6 -13 5 -11 0 -14 -3 -6 -6z"/>
<path d="M2003 33 c9 -8 73 -10 92 -2 13 5 0 7 -38 7 -32 0 -56 -2 -54 -5z"/>
<path d="M2134 28 c-5 -8 31 -12 68 -9 9 1 19 -3 23 -9 3 -5 11 -10 18 -10 6
0 3 6 -8 14 -23 16 -94 26 -101 14z"/>
<path d="M2317 28 c6 -10 30 -10 36 0 3 4 -5 7 -18 7 -13 0 -21 -3 -18 -7z"/>
<path d="M2424 29 c-5 -9 166 -1 175 8 3 2 -34 3 -82 2 -48 -1 -90 -5 -93 -10z"/>
<path d="M2945 30 c-3 -5 -1 -10 4 -10 6 0 11 5 11 10 0 6 -2 10 -4 10 -3 0
-8 -4 -11 -10z"/>
<path d="M408 23 c12 -2 30 -2 40 0 9 3 -1 5 -23 4 -22 0 -30 -2 -17 -4z"/>
<path d="M658 23 c6 -2 18 -2 25 0 6 3 1 5 -13 5 -14 0 -19 -2 -12 -5z"/>
<path d="M2263 23 c9 -2 23 -2 30 0 6 3 -1 5 -18 5 -16 0 -22 -2 -12 -5z"/>
<path d="M2395 19 c-4 -6 -5 -12 -2 -15 2 -3 7 2 10 11 7 17 1 20 -8 4z"/>
<path d="M280 11 c0 -5 9 -7 20 -4 11 3 20 7 20 9 0 2 -9 4 -20 4 -11 0 -20
-4 -20 -9z"/>
<path d="M495 9 c-40 -6 -39 -6 13 -8 51 -1 65 3 40 11 -7 2 -31 1 -53 -3z"/>
<path d="M960 8 c12 -4 36 -4 53 0 28 8 26 9 -21 9 -40 -1 -48 -3 -32 -9z"/>
<path d="M1385 11 c8 -7 115 -11 115 -3 0 4 -27 7 -60 8 -33 0 -57 -2 -55 -5z"/>
<path d="M1540 10 c-18 -12 -2 -12 25 0 13 6 15 9 5 9 -8 0 -22 -4 -30 -9z"/>
<path d="M1856 12 c-2 -4 6 -8 20 -8 13 0 24 4 24 8 0 4 -9 8 -19 8 -11 0 -22
-4 -25 -8z"/>
<path d="M1916 8 c6 -10 75 -10 91 0 6 4 -13 7 -42 8 -30 0 -52 -4 -49 -8z"/>
<path d="M2551 11 c-10 -6 1 -8 30 -4 24 3 46 7 48 9 10 9 -65 3 -78 -5z"/>
<path d="M2687 9 c7 -7 15 -10 18 -7 3 3 -2 9 -12 12 -14 6 -15 5 -6 -5z"/>
<path d="M358 3 c6 -2 18 -2 25 0 6 3 1 5 -13 5 -14 0 -19 -2 -12 -5z"/>
<path d="M608 3 c7 -3 16 -2 19 1 4 3 -2 6 -13 5 -11 0 -14 -3 -6 -6z"/>
<path d="M708 3 c12 -2 30 -2 40 0 9 3 -1 5 -23 4 -22 0 -30 -2 -17 -4z"/>
<path d="M1668 3 c6 -2 18 -2 25 0 6 3 1 5 -13 5 -14 0 -19 -2 -12 -5z"/>
<path d="M2488 3 c6 -2 18 -2 25 0 6 3 1 5 -13 5 -14 0 -19 -2 -12 -5z"/>
</g>
</svg>
