<svg xmlns:dc="http://purl.org/dc/elements/1.1/" xmlns:cc="http://web.resource.org/cc/" xmlns:rdf="http://www.w3.org/1999/02/22-rdf-syntax-ns#" xmlns="http://www.w3.org/2000/svg" xmlns:sodipodi="http://inkscape.sourceforge.net/DTD/sodipodi-0.dtd" xmlns:inkscape="http://www.inkscape.org/namespaces/inkscape" id="svg10681" sodipodi:version="0.32" inkscape:version="0.43" width="400px" height="400px" version="1.0" sodipodi:docbase="D:\dokumenty\kot\do wiki" sodipodi:docname="tourism.svg" xmlns:xlink="http://www.w3.org/1999/xlink" viewBox="0 0 400 400" preserveAspectRatio="xMidYMid meet" >


  <metadata id="metadata10686">
    <rdf:RDF>
      <cc:Work rdf:about="">
        <dc:format>image/svg+xml</dc:format>
        <dc:type rdf:resource="http://purl.org/dc/dcmitype/StillImage"/>
      </cc:Work>
    </rdf:RDF>
  </metadata>
  <defs id="defs10684"/>

  <circle opacity="0.3" fill="#C7C7C7" cx="200" cy="200.21" r="200"/>
  <path sodipodi:type="arc" style="opacity: 1; fill-opacity: 1; fill-rule: evenodd; stroke-width: 40; stroke-linecap: round; stroke-linejoin: round; stroke-miterlimit: 4; stroke-dasharray: none; stroke-dashoffset: 0; stroke-opacity: 1; stroke: rgb(255, 255, 255);" id="path11603" sodipodi:cx="176.31068" sodipodi:cy="43.430145" sodipodi:rx="3.8834951" sodipodi:ry="3.8834951" d="M259.34,89.4977 A3.8835,3.8835 0 1,1 254.35,92.2748 A2.85533,2.85533 0 0,1 259.34,89.4977 z" transform="matrix(0.893055, 0, 0, 0.893055, -22.8985, 3.66276)" fill="#ffffff"/>
  <path style="fill-opacity: 1; fill-rule: evenodd; stroke-width: 1px; stroke-linecap: butt; stroke-linejoin: miter; stroke-opacity: 1;" d="M175.435,53.5435 L161.455,53.5435 L161.455,33.3493 C161.455,33.3493 161.787,12.3377 139.707,11.6017 C116.406,10.825 117.96,36.4561 117.96,36.4561 L115.63,134.32 C115.63,134.32 114.076,153.738 137.377,156.844 L138.154,180.145 L129.61,312.184 C129.61,312.184 130.387,326.165 145.144,328.495 C159.901,330.825 164.562,316.068 164.562,316.068 L167.993,288.069 L149.804,190.243 L153.421,191.061 L176.989,317.621 C176.989,317.621 184.756,334.709 197.183,332.378 C209.61,330.048 212.717,316.068 212.717,316.068 L203.397,183.252 L205.727,116.456 L210.387,127.33 C210.387,127.33 213.494,131.213 217.377,135.097 C221.261,138.98 249.222,162.281 249.222,162.281 L249.222,323.835 C249.222,323.835 259.319,340.145 264.756,323.835 L264.756,164.611 C264.756,164.611 274.076,165.388 274.076,153.738 C274.853,152.961 271.746,143.641 267.086,142.087 L267.086,135.097 C267.086,135.097 266.309,124.223 258.542,124.223 C258.542,124.223 251.552,126.553 250.775,128.883 L232.135,114.126 L207.28,65.1941 C207.28,65.1941 195.63,53.5435 175.435,53.5435 z" id="path12482" sodipodi:nodetypes="cccscccccscccccsccccscccccccccccc" fill="white" transform="matrix(0.81626, 0, 0, 0.81626, 53.3672, 66.6501)"/>
</svg>